<svg width="194" height="181" fill="none" xmlns="http://www.w3.org/2000/svg"><g clip-path="url(#clip0_1_1245)"><path d="M27.067 177.139a7.246 7.246 0 01-1.657-.182c-2.276-.529-4.18-2.415-4.742-4.692-.557-2.271.253-4.83 2.019-6.362.576-.501 1.295-.935 2.185-1.332l.048-.019a13.463 13.463 0 014.99-1.169c.952-.038 1.742.033 2.495.482.252.148 1.019.606 1.304 1.504.11.343.105.658.1 1.226a6.466 6.466 0 01-.052.793c-.02.171-.029.272-.024.439 0 .052.038.544.253.978.152.306.323.439.847.816.367.263.867.621 1.533 1.208.272.238.614.534.81.974.433.968-.077 1.985-.648 2.563-.852.863-2.023 1.236-3.157 1.546-.904.248-1.838.487-2.761.706-1.148.272-2.343.525-3.547.525l.004-.004zm3.229-12.539c-.105 0-.22 0-.339.005a12.19 12.19 0 00-4.532 1.059l-.053.024c-.78.344-1.395.716-1.88 1.141-1.429 1.236-2.086 3.303-1.634 5.141.453 1.837 1.99 3.36 3.828 3.789 1.49.349 3.11.024 4.643-.339a69.928 69.928 0 002.723-.696c1.01-.277 1.967-.578 2.605-1.222.31-.315.571-.826.4-1.198-.086-.191-.296-.377-.495-.554a18.781 18.781 0 00-1.438-1.136c-.543-.391-.934-.673-1.229-1.27a3.972 3.972 0 01-.376-1.455 3.316 3.316 0 01.029-.645 6.24 6.24 0 00.042-.673c.005-.486.005-.687-.038-.835-.142-.453-.595-.721-.761-.821-.377-.224-.8-.315-1.486-.315h-.01zM166.965 181c-4.176 0-9.614-.644-18.179-1.666-.952-.114-1.295-.162-1.59-.2-.277-.038-.515-.072-1.191-.148a406.597 406.597 0 00-4.033-.43c-6.642-.687-15.741-1.627-19.792-3.279-1.438-.587-2.314-1.284-2.767-2.195-.152-.311-.219-.544-.709-2.788-.195-.902-.295-1.35-.314-1.446-.324-1.69.1-4.52 1.78-7.05.876-1.317 1.6-1.78 2.3-2.229.695-.443 1.347-.863 2.285-2.219.167-.243.319-.477.467-.706.538-.84 1.095-1.709 2.219-2.535.671-.496 1.147-.687 1.528-.84.291-.119.505-.2.757-.396.867-.663.957-1.604 1.043-3.212.048-.926.105-1.976.419-3.074.409-1.432 1.757-2.573 3.795-4.3 1.3-1.098 2.914-2.468 4.78-4.315 1.681-1.671 3.59-3.561 6.037-4.463 4.143-1.532 8.39.091 12.499 1.656 1.128.43 2.295.874 3.423 1.237 3.319 1.064 6.871 1.503 10.309 1.933 3.152.391 6.413.797 9.537 1.68 3.147.887 5.266 2.105 6.67 3.828 1.433 1.756 2.043 3.999 2.581 5.975l2.08 7.627c.972 3.566 1.786 7.308.181 10.482-.709 1.408-1.595 2.32-2.29 2.954-8.923 8.205-19.24 9.785-19.674 9.847-1.28.186-2.637.272-4.161.272h.01zm-17.617-46.87c-1.057 0-2.095.157-3.109.534-2.2.812-4.005 2.601-5.6 4.181-1.9 1.886-3.533 3.27-4.847 4.382-1.866 1.584-3.104 2.63-3.409 3.699-.276.964-.324 1.9-.371 2.802-.086 1.584-.162 3.078-1.524 4.123-.39.301-.724.435-1.047.564-.353.143-.715.286-1.257.687-.943.697-1.395 1.398-1.914 2.215-.158.243-.315.491-.491.744-1.081 1.561-1.904 2.086-2.633 2.554-.647.415-1.204.773-1.938 1.875-1.481 2.225-1.866 4.74-1.6 6.134.02.095.115.534.31 1.417.457 2.091.528 2.334.609 2.506.196.391.624.988 2.124 1.599 3.89 1.585 12.884 2.515 19.455 3.193 1.485.153 2.861.296 4.047.434.69.082.933.115 1.214.153.29.038.628.086 1.571.201 11.58 1.379 17.393 2.066 22.021 1.398.105-.014 10.39-1.594 19.022-9.536.614-.568 1.404-1.375 2.023-2.606 1.41-2.788.676-6.133-.271-9.603l-2.081-7.628c-.504-1.861-1.081-3.966-2.347-5.522-1.238-1.518-3.162-2.606-6.052-3.422-3.033-.859-6.247-1.255-9.356-1.642-3.49-.434-7.104-.883-10.532-1.981-1.157-.372-2.342-.821-3.485-1.26-2.828-1.079-5.728-2.181-8.528-2.181l-.004-.014zM51.93 167.75c-2.137 0-4.256-.367-5.746-1.828a9.51 9.51 0 01-.624-.687c-.404-.477-.866-1.017-1.723-1.671a9.588 9.588 0 00-1.967-1.169c-.638-.301-1.238-.587-1.9-1.346-.49-.563-2.028-2.553-1.352-4.72.281-.898.872-1.618 1.414-2.21a18.402 18.402 0 017.552-4.94c.8-.287 1.557-.559 2.1-1.074.38-.358.657-.84.947-1.356.076-.133.152-.267.229-.396 2.157-3.618 6.094-6.114 10.284-6.505 4.185-.397 8.523 1.317 11.313 4.472.8.811 1.386 1.756 1.71 2.778.37 1.174.261 2.023.175 2.701-.066.53-.119.917.043 1.37.295.831.943 1.112 2.757 1.809.9.344 2.019.768 3.38 1.422 1.924.926 4.6 2.463 5.69 5.16.748 1.847.462 3.933-.7 5.188-1.614 1.747-4.323 1.613-6.118 1.518-5.737-.291-11.889.177-23.606 1.231l-.467.043c-1.071.101-2.238.206-3.395.206l.005.004zm10.419-26.728c-.362 0-.724.019-1.086.052-3.804.358-7.385 2.625-9.346 5.914-.077.124-.148.253-.22.377-.323.563-.657 1.15-1.17 1.632-.734.692-1.648 1.022-2.529 1.337-.138.048-.276.1-.41.148a17.286 17.286 0 00-6.651 4.467c-.452.492-.938 1.079-1.148 1.747-.5 1.594.829 3.227 1.1 3.537.5.573.9.764 1.505 1.05a10.75 10.75 0 012.185 1.308c.962.735 1.49 1.355 1.914 1.852.196.229.362.424.548.606 1.895 1.856 5.233 1.546 8.175 1.274l.472-.043c11.78-1.064 17.964-1.532 23.782-1.236 2.072.11 4.024.1 5.157-1.126.976-1.06.938-2.716.462-3.895-.71-1.752-2.324-3.184-5.085-4.511a40.762 40.762 0 00-3.286-1.384c-1.79-.682-2.975-1.136-3.475-2.539-.262-.735-.181-1.351-.105-1.943.08-.615.162-1.255-.129-2.171-.266-.835-.747-1.613-1.433-2.31-2.314-2.616-5.761-4.138-9.218-4.138l-.01-.005zm84.929-16.462c-.176 0-.352-.015-.519-.048-1.324-.239-2.352-1.155-3.181-1.89l-7.27-6.463c-.51-.453-1.09-.968-1.733-1.121-.895-.215-1.69.095-2.033.229-.743.291-1.962.754-3.59 1.374a1834.193 1834.193 0 00-10.947 4.201.617.617 0 01-.442-1.151c4.499-1.742 8.227-3.164 10.955-4.205 1.624-.62 2.843-1.083 3.571-1.365.419-.162 1.51-.587 2.771-.286.943.224 1.672.873 2.262 1.398l7.271 6.463c.904.807 1.671 1.437 2.585 1.599a1.94 1.94 0 001.438-.334c.181-.139.409-.372.443-.711.085-.788-.772-1.485-1.705-2.124a40.418 40.418 0 01-7.637-6.764c-.143-.162-.471-.539-.4-1.045.095-.644.771-.883.995-.964 1.067-.382 6.599-1.055 8.928-1.327a.613.613 0 01.681.54.613.613 0 01-.538.682c-3.51.411-7.88.988-8.652 1.26-.038.014-.071.024-.1.038l.005.005a39.053 39.053 0 007.404 6.558c.843.573 2.414 1.642 2.238 3.274-.067.611-.396 1.165-.929 1.561-.519.391-1.2.606-1.866.606l-.005.01zm23.497-8.759c-.657 0-1.505-.205-2.595-.754a42.124 42.124 0 00-16.512-4.424.613.613 0 01-.576-.649c.019-.339.309-.611.647-.578a43.44 43.44 0 0116.998 4.554c1.005.505 2.314.968 2.852.291.395-.497.11-1.384-.028-1.742-.777-1.996-2.519-3.738-4.9-4.902-2.204-1.079-4.704-1.575-7.07-1.995-.924-.163-1.967-.349-2.795-1.017-.919-.735-1.395-2.21-.648-3.236.043-.057.1-.11.162-.153a26.76 26.76 0 013.871-2.09c.49-.215.928-.392 1.324-.544 1.247-.497 1.804-.736 2.037-1.299.22-.53.143-1.203-.18-1.57-.329-.372-.962-.51-1.924-.425-2.424.22-4.228 1.289-7.766 3.504-.533.334-2.052 1.283-4.337 2.706a.613.613 0 01-.648-1.041c2.286-1.422 3.804-2.372 4.338-2.706 3.604-2.253 5.609-3.441 8.303-3.685 1.381-.124 2.348.148 2.952.836.634.715.796 1.89.396 2.854-.443 1.064-1.395 1.441-2.719 1.966-.381.153-.809.32-1.281.53a26.205 26.205 0 00-3.585 1.928c-.233.439.038 1.117.476 1.466.586.467 1.428.62 2.243.763 2.456.435 5.051.955 7.399 2.105 2.661 1.303 4.613 3.274 5.504 5.561.466 1.193.409 2.243-.153 2.954-.333.42-.88.797-1.771.797l-.014-.005zm-58.826-1.503c-.376 0-.743-.033-1.105-.096a.605.605 0 01-.476-.42.599.599 0 01.148-.615l3.418-3.475a.614.614 0 11.872.864l-2.457 2.496c1.171-.081 2.461-.53 3.899-1.351.624-.353 1.243-.758 1.848-1.145 1.033-.668 2.104-1.36 3.266-1.876 2.409-1.074 4.376-1.427 5.433-1.618 3.766-.682 10.575-2.644 20.231-5.828a.612.612 0 01.771.392.611.611 0 01-.391.773c-9.713 3.207-16.574 5.183-20.397 5.871-1.076.195-2.876.52-5.152 1.532-1.076.477-2.057 1.112-3.099 1.785-.615.396-1.253.807-1.905 1.179-1.795 1.021-3.409 1.527-4.904 1.527v.005zm3.788-5.341a.617.617 0 01-.528-.926 19.706 19.706 0 015.994-6.362c.424-.287.862-.554 1.296-.816a31.08 31.08 0 001.433-.917 15.851 15.851 0 005.056-5.713.625.625 0 01.305-.282l.057-.024c1.79-.754 4.495-1.89 6.442-1.976 1.29-.052 2.581.048 3.828.144.729.057 1.481.114 2.214.143a26.022 26.022 0 0014.003-3.566.609.609 0 01.838.22.612.612 0 01-.219.84c-4.38 2.587-9.589 3.914-14.669 3.733a56.97 56.97 0 01-2.262-.144c-1.209-.095-2.462-.19-3.68-.138-1.676.072-4.257 1.14-5.876 1.818a17.083 17.083 0 01-5.347 5.962c-.49.339-.995.649-1.49.95a29.36 29.36 0 00-1.252.792 18.5 18.5 0 00-5.619 5.961.607.607 0 01-.528.301h.004zm41.824-20.896a.612.612 0 01-.476-.998 53.414 53.414 0 004.419-6.496c.523-.911 1.104-1.975 1.333-3.088.419-2.009-.362-4.238-1.943-5.546-.252-.21-.352-.229-.386-.22-.038 0-.181.063-.409.655a27.79 27.79 0 01-5.471 8.8c-.419.46-.919.975-1.557 1.332-.757.42-1.604.564-2.352.688l-6.904 1.14c-.581.096-1.304.215-2.014.02-.766-.215-1.538-.917-1.523-1.838.009-.745.528-1.322.838-1.666l5.027-5.57c2.419-2.677 4.919-5.45 7.885-7.67.814-.606 1.662-1.174 2.481-1.723a79.801 79.801 0 001.519-1.03c2.466-1.724 3.195-2.597 3.742-3.695.476-.955.533-1.656.643-3.06.048-.572-.014-.71-.052-.744-.039-.024-.258-.072-.715.067-1.314.396-2.499 1.627-3.642 2.816a34.55 34.55 0 01-1.176 1.183 17.425 17.425 0 01-3.766 2.688.614.614 0 01-.576-1.083 16.34 16.34 0 003.504-2.497c.376-.353.743-.735 1.133-1.14 1.252-1.304 2.547-2.65 4.171-3.137.814-.248 1.438-.186 1.862.172.581.496.514 1.332.481 1.78-.119 1.46-.191 2.34-.772 3.508-.623 1.256-1.471 2.292-4.137 4.153-.51.353-1.024.697-1.538 1.045-.81.54-1.643 1.098-2.429 1.685-2.871 2.153-5.332 4.873-7.708 7.513l-5.028 5.57c-.262.291-.514.596-.519.854 0 .253.281.54.628.64.448.124.972.038 1.481-.048l6.904-1.14c.681-.115 1.386-.23 1.957-.55.481-.267.9-.701 1.252-1.088a26.986 26.986 0 005.228-8.415c.157-.4.519-1.336 1.424-1.431.552-.058 1.004.252 1.295.496 1.923 1.59 2.871 4.3 2.362 6.749-.272 1.289-.9 2.458-1.472 3.45a53.954 53.954 0 01-4.523 6.65.606.606 0 01-.481.229v-.01zm-6.604-23.507a.704.704 0 01-.171-.024c-1.457-.42-2.49-1.942-2.757-4.085-.562-4.453 2.857-8.439 3.252-8.878.343-.382.909-.969 2.043-2.133l.323-.335c1.314-1.35 1.914-1.966 2.357-3.03.329-.793.41-1.37.362-1.57a7.777 7.777 0 00-.705-.077c-.09-.01-.19-.02-.295-.033-.171-.02-.49-.058-.585-.039a7.694 7.694 0 00-2.705 1.657.61.61 0 01-.866-.024.618.618 0 01.023-.87 8.982 8.982 0 013.157-1.927c.319-.115.729-.067 1.119-.02l.252.03c.715.061 1.11.095 1.405.348.733.634.386 1.976-.038 2.992-.533 1.284-1.271 2.038-2.609 3.418l-.324.334c-1.119 1.15-1.681 1.732-2.005 2.095-.142.158-3.452 3.928-2.947 7.904.076.611.443 2.644 1.881 3.06a.614.614 0 01-.172 1.202l.005.005zm-10.893 2.778a.661.661 0 01-.248-.052.621.621 0 01-.314-.812 22.037 22.037 0 001.143-3.293c.342-1.332.561-2.706.647-4.081a.47.47 0 01.033-.162 28.566 28.566 0 011.743-4.029 29.233 29.233 0 016.295-8.061.614.614 0 01.819.916 27.961 27.961 0 00-6.033 7.723 27.757 27.757 0 00-1.643 3.775 22.601 22.601 0 01-.681 4.23 22.927 22.927 0 01-1.209 3.479.612.612 0 01-.562.367h.01zm-16.165 21.784a.616.616 0 01-.5-.258.614.614 0 01.148-.854 42.772 42.772 0 008.841-8.415 42.79 42.79 0 006.181-10.749.608.608 0 01.795-.343.616.616 0 01.343.797 44.173 44.173 0 01-6.357 11.059 44.118 44.118 0 01-9.094 8.658.617.617 0 01-.352.114l-.005-.01zm-18.559 15.975c-.076 0-.152 0-.228-.014-.843-.11-1.557-.807-2.129-2.077a.614.614 0 011.119-.501c.372.826.781 1.308 1.162 1.361.267.038.847-.11 1.785-1.456 1.643-2.349 6.476-6.596 14.799-13.011a.613.613 0 01.861.114.617.617 0 01-.114.864c-8.108 6.253-12.994 10.529-14.522 12.72-.367.525-1.405 2.009-2.733 2.009v-.009zm-2.267-3.398a.614.614 0 01-.609-.549 6.692 6.692 0 011.733-5.184l.162-.172c.214-.22.414-.43.495-.649.172-.448-.1-.916-.557-1.642-.333-.53-.714-1.13-.828-1.813-.191-1.141.385-1.88 1.185-2.902.267-.344.571-.73.895-1.194 1.591-2.267 2.386-4.252 3.305-6.543a28.29 28.29 0 001.023-3.022c.334-1.15.572-1.975 1.481-3.207a22.756 22.756 0 012.505-2.806c.461-.43.885-.783 1.261-1.093.829-.688 1.372-1.141 1.567-1.766l.024-.072a16.629 16.629 0 01.909-2.391.614.614 0 01.814-.296c.305.143.438.51.295.816a16.69 16.69 0 00-.847 2.229l-.024.086c-.305.969-1.033 1.575-1.952 2.343-.362.301-.771.645-1.209 1.05a21.502 21.502 0 00-2.353 2.635c-.776 1.055-.971 1.718-1.29 2.82a31.045 31.045 0 01-1.062 3.132c-.909 2.267-1.771 4.41-3.442 6.797-.343.491-.657.892-.933 1.245-.772.993-1.038 1.365-.943 1.943.071.434.352.883.652 1.356.5.792 1.067 1.69.672 2.734-.172.454-.486.778-.762 1.065l-.148.157a5.459 5.459 0 00-1.409 4.215.613.613 0 01-.548.673h-.066l.004.005zm16.959-34.857a.614.614 0 01-.157-1.208c1.719-.468 3.319-.912 4.824-1.327 1.566-.434 3.023-.835 4.399-1.207.543-.148 2.2-.597 3.076-1.838a2.744 2.744 0 00.481-1.857c-.591.144-2.609.86-3.833 1.29-.633.224-1.152.405-1.386.481-1.209.392-2.547.468-3.985.215a.616.616 0 01.21-1.212c1.238.214 2.375.157 3.394-.172a92.55 92.55 0 001.357-.473c1.91-.673 3.533-1.24 4.067-1.35.423-.086.771-.015 1.023.205.281.243.334.592.353.725a3.99 3.99 0 01-.681 2.86c-1.133 1.603-3.109 2.138-3.757 2.314a753.21 753.21 0 00-4.395 1.208c-1.504.415-3.109.859-4.828 1.327a.628.628 0 01-.162.024v-.005zm-8.827-3.747a.614.614 0 01-.438-1.04c4.914-5.117 6.966-9.112 6.099-11.88l-.076-.24a42.264 42.264 0 01-1.243-4.758c-.438-2.162-.195-4.028.696-5.393.557-.864 1.585-1.56 2.614-1.184 1.09.401 1.328 1.718 1.433 2.277.376 2.095.757 4.186 1.142 6.276.129.711.324 1.103.577 1.17.252.062.619-.187.876-.382 2.966-2.253 5.018-5.566 6.999-8.773l.471-.759c.257-.415.548-.883.948-1.284.404-.405.866-.697 1.309-.978l3.123-1.967c1.381-.868 2.81-1.77 4.381-2.386 1.419-.558 2.542-.587 3.433-.086.514.291.876.72 1.228 1.17.81 1.035 1.605 2.28 1.343 3.66-.295 1.551-1.809 2.454-2.809 3.05a66.544 66.544 0 00-7.19 4.945c-.719.568-1.5 1.246-1.609 2.071-.01.077-.015.158-.024.234-.029.349-.062.826-.41 1.198-.214.234-.476.344-.685.435a11.182 11.182 0 00-3.847 2.72c-.567.62-1.076 1.322-1.572 2-.78 1.07-1.328 1.819-1.723 2.348-.491.669-.738 1.003-.843 1.165-.471.75-.909 1.542-1.304 2.353a.613.613 0 11-1.1-.54 27.48 27.48 0 011.366-2.467c.129-.2.352-.506.895-1.246.391-.53.938-1.274 1.719-2.343.514-.707 1.048-1.437 1.662-2.105a12.353 12.353 0 014.247-3.012c.124-.052.247-.105.286-.148.057-.062.071-.281.085-.458.01-.1.015-.205.029-.3.162-1.223 1.09-2.1 2.066-2.874a67.816 67.816 0 017.323-5.035c1.076-.64 2.057-1.294 2.233-2.225.172-.897-.462-1.856-1.104-2.672-.286-.363-.548-.678-.867-.86-.547-.31-1.328-.257-2.385.158-1.462.577-2.843 1.446-4.176 2.286l-3.123 1.967c-.386.243-.791.496-1.096.801-.3.306-.542.692-.776 1.07l-.466.754c-2.043 3.303-4.157 6.72-7.304 9.106-.495.378-1.162.788-1.919.592-1.143-.29-1.385-1.632-1.481-2.138l-1.142-6.281c-.1-.549-.262-1.203-.648-1.346-.376-.139-.876.258-1.162.702-.9 1.379-.781 3.197-.519 4.481.457 2.258.948 3.8 1.21 4.625l.076.244c1.024 3.274-1.062 7.56-6.385 13.102a.612.612 0 01-.443.186v.014zM93.216 91.846a.617.617 0 01-.176-1.208c1.286-.391 2.238-1.021 2.828-1.88.453-.659.534-1.289.638-2.086.067-.506.138-1.079.324-1.704.567-1.89 1.686-3.513 2.771-5.083l.405-.592a65.602 65.602 0 004.966-8.591c.462-.96.876-1.905.876-2.869 0-1.465-.971-2.806-1.909-4.1l-.2-.276c-1.052-1.466-2.19-3.408-1.643-5.427.386-1.423 1.5-2.42 2.609-3.318.867-.701 2.243-1.312 3.252-.73.795.458 1.053 1.48 1.029 2.21-.024.816-.391 1.265-.691 1.628-.219.267-.395.482-.466.859-.143.773.304 1.57 1.123 3.016.267.477.572.94.9 1.38a.612.612 0 01-.123.859.61.61 0 01-.858-.124 14.23 14.23 0 01-.985-1.509c-.895-1.589-1.49-2.634-1.262-3.851.129-.683.457-1.089.719-1.408.248-.306.4-.492.41-.883.014-.416-.134-.945-.419-1.112-.4-.234-1.267.133-1.867.62-.952.773-1.904 1.613-2.195 2.682-.409 1.518.562 3.141 1.457 4.387l.195.272c1 1.389 2.138 2.959 2.143 4.82 0 1.227-.49 2.353-1 3.408a66.906 66.906 0 01-5.061 8.754l-.41.597c-1.028 1.489-2.095 3.03-2.604 4.734-.157.53-.224 1.026-.281 1.504-.11.845-.22 1.723-.843 2.625-.752 1.093-1.923 1.885-3.48 2.363a.567.567 0 01-.177.028l.005.005zM88.56 89.97c-.038 0-.076 0-.114-.01a.609.609 0 01-.486-.715 42.806 42.806 0 00.034-15.842c-.058-.31-.12-.625-.181-.935-.448-2.3-.91-4.678-.2-6.974.623-2.014 2.042-3.58 3.409-5.092.314-.344.623-.692.928-1.04 2.59-2.998 4.519-6.568 6.38-10.024 5.728-10.605 12.856-23.807 12.151-37.415-.033-.664-.105-1.403-.528-1.814-.272-.267-.629-.31-.876-.3a2.121 2.121 0 00-1.443.696c-.705.807-.919 2.005-1.105 3.064a.611.611 0 11-1.204-.214c.204-1.155.462-2.587 1.39-3.656.571-.654 1.457-1.084 2.314-1.117.695-.038 1.324.2 1.781.644.704.687.847 1.67.895 2.63.724 13.956-6.495 27.325-12.294 38.064-1.895 3.513-3.856 7.14-6.532 10.243-.31.358-.629.707-.948 1.06-1.338 1.48-2.6 2.873-3.147 4.63-.62 2.004-.186 4.224.233 6.376.062.32.124.635.181.95 1 5.408.99 10.892-.038 16.295a.615.615 0 01-.6.501v-.005z" fill="#408F95"/><path d="M96.32 34.322c-.323 0-.656-.052-.999-.157a.621.621 0 01-.314-.224l-1.538-2.096a.614.614 0 11.986-.73l1.409 1.923c.367.082.695.072.98-.042.291-.115.53-.34 1.267-1.394l.243-.349c.471-.668.728-1.035.943-1.432 1.2-2.252 2.442-4.586 3.333-7.006.485-1.318.881-2.697 1.261-4.029l.996-3.48a.612.612 0 111.176.34l-.996 3.48c-.385 1.35-.785 2.748-1.29 4.113-.924 2.502-2.181 4.869-3.399 7.16-.248.463-.538.878-1.024 1.566l-.243.343c-.814 1.16-1.19 1.585-1.824 1.833-.304.12-.633.177-.97.177l.004.004zM83.727 32.69c-1.324 0-2.538-1.986-3.961-4.558l-.243-.434c-1.014-1.814-1.471-2.41-1.957-3.04-.514-.674-1.052-1.366-2.224-3.442-.852-1.499-1.533-2.926-2.195-4.305-.87-1.819-1.695-3.537-2.828-5.294a29.842 29.842 0 00-2.933-3.808.614.614 0 11.91-.826 31.125 31.125 0 013.056 3.966c1.176 1.819 2.014 3.57 2.905 5.427.652 1.36 1.323 2.768 2.152 4.229 1.133 1.995 1.638 2.658 2.128 3.298.514.668.995 1.298 2.057 3.188l.243.44c1.49 2.682 2.466 4.014 2.914 3.928.066-.015.324-.105.566-.296.405-.315.567-.75.658-.984.847-2.252.961-3.15.961-3.16.224-2.018.381-4.791.448-7.798.038-1.561.09-2.158.157-2.855.067-.725.143-1.546.229-3.627l.047-1.246c.172-4.257.19-4.806.557-6.376.629-2.702 2.867-5.408 5.757-5.098 1.19.12 1.785.63 2.076 1.04.6.84.395 1.776.133 2.96-.043.196-.09.4-.133.616-.143.692-.2 1.388-.262 2.128-.053.606-.105 1.232-.205 1.847-1.043 6.344-1.228 10.468-1.228 10.506a67.52 67.52 0 00.376 10.481.62.62 0 01-.538.683.622.622 0 01-.681-.54 69.041 69.041 0 01-.386-10.677c0-.043.19-4.238 1.243-10.653.095-.573.143-1.146.195-1.756.062-.745.129-1.514.286-2.272.047-.225.09-.435.138-.635.228-1.04.338-1.604.067-1.981-.143-.2-.467-.458-1.186-.53-2.138-.229-3.938 1.933-4.457 4.153-.338 1.455-.357 1.9-.528 6.142l-.048 1.246c-.085 2.11-.166 2.988-.233 3.694-.067.702-.114 1.256-.153 2.726-.066 3.083-.228 5.89-.457 7.952-.01.1-.133 1.054-1.033 3.45-.11.296-.371.993-1.052 1.523-.338.267-.771.477-1.1.535-.08.014-.162.023-.238.023v.01z" fill="#408F95"/><path d="M78.338 52.655c-.128 0-.252 0-.37-.01a.613.613 0 01-.587-.639c.015-.339.3-.61.638-.587 1.29.057 2.224-.224 2.581-.768.333-.506.2-1.25-.595-3.308l-2.952-7.642c-.624-1.618-1.271-3.293-2.171-4.777-.305-.501-.543-.835-.772-1.16l-.18-.253c-1.272-1.819-2.005-3.317-3.467-6.305l-.062-.124c-.947-1.938-1.947-3.89-2.913-5.78-.59-1.15-1.177-2.3-1.757-3.451a20.48 20.48 0 00-1.9-3.098c-.153-.2-.22-.29-.29-.372-.072-.09-.143-.172-.282-.363-1.038-1.394-2.209-2.969-2.323-4.911-.043-.692-.124-2.124.89-3.184 1.02-1.064 2.743-1.331 4.495-.697a.61.61 0 01.367.788.612.612 0 01-.786.367c-1.276-.458-2.528-.305-3.195.392-.643.673-.586 1.709-.552 2.262.095 1.575 1.104 2.93 2.08 4.243.124.167.186.244.253.325.076.095.152.19.324.415a21.837 21.837 0 012.014 3.28c.58 1.15 1.166 2.3 1.757 3.445a346.665 346.665 0 012.923 5.8l.062.123c1.476 3.022 2.152 4.401 3.366 6.138l.172.244c.233.325.495.697.823 1.236.957 1.58 1.624 3.303 2.267 4.974l2.952 7.641c.78 2.019 1.2 3.322.476 4.425-.705 1.074-2.11 1.327-3.285 1.327v.004zm1.775 45.281h-.076a.611.611 0 01-.533-.682c.804-6.73-.4-13.045-1.676-19.732a357.24 357.24 0 01-.553-2.92c-.209-1.046-.138-2.187-.07-3.29.028-.486.056-.944.061-1.374a15.801 15.801 0 01-.205-1.055c-.124-.735-.233-1.374-.557-1.856a.306.306 0 01-.038-.067c-.566-1.14-1.48-2.01-2.357-2.854-.814-.778-1.657-1.59-2.238-2.606-.938-1.881-1.785-3.895-2.342-5.566-1.471-3.121-3.666-5.656-5.99-8.338-1.238-1.432-2.523-2.912-3.733-4.53-.804-1.207.162-2.11.681-2.596.081-.076.167-.153.243-.23.786-.787 1.914-1.064 2.933-.725 1.862.535 3.47 1.824 4.89 3.943.11.095.28.21.447.32a4.6 4.6 0 01.672.51c.019.02.033.039.052.058 1.2 1.546 2.485 2.863 3.842 4.257.862.888 1.757 1.804 2.62 2.778a.615.615 0 01-.919.816 71.278 71.278 0 00-2.581-2.735c-1.31-1.346-2.667-2.74-3.905-4.324a4.067 4.067 0 00-.462-.334 4.606 4.606 0 01-.67-.51.746.746 0 01-.077-.096c-1.28-1.924-2.638-3.04-4.271-3.508-.614-.206-1.243-.043-1.705.42-.085.085-.18.171-.27.262-.687.644-.672.754-.515.988 1.166 1.556 2.433 3.017 3.657 4.434 2.39 2.759 4.647 5.365 6.19 8.653l.028.067c.538 1.628 1.371 3.6 2.271 5.413.476.835 1.219 1.546 2.005 2.3.947.907 1.928 1.848 2.59 3.16.452.697.59 1.508.723 2.3.057.344.12.698.205 1.041.014.048.02.1.02.148 0 .492-.034 1.017-.063 1.523-.062 1.026-.128 2.085.053 2.978.18.988.366 1.957.552 2.921 1.295 6.782 2.519 13.188 1.69 20.108-.038.31-.3.54-.61.54l-.009-.01zM53.927 69.742a.622.622 0 01-.543-.902c2.19-4.21 3.357-8.849 3.371-13.426a28.648 28.648 0 00-.738-6.51c-3.78-1.8-5.632-3.623-5.651-5.566-.005-.735.252-1.412.5-2.071.347-.921.538-1.513.247-2.024-.142-.248-.323-.353-.576-.496-.138-.081-.3-.172-.452-.296-2.005-1.575-.814-5.804.238-9.532l.157-.549c2.362-8.438 2.028-11.631 1.81-13.746-.053-.515-.1-.96-.1-1.403 0-.759-.282-1.77-.748-2.157a.58.58 0 00-.462-.143l-3.595 1.89a.616.616 0 01-.571-1.088l3.685-1.934a.492.492 0 01.167-.057c.571-.115 1.11.02 1.557.387.943.773 1.195 2.32 1.195 3.107 0 .382.043.797.095 1.274.233 2.205.581 5.546-1.847 14.21l-.157.553c-.853 3.021-2.02 7.164-.662 8.233.09.072.19.13.314.2.319.187.719.416 1.024.95.6 1.055.195 2.125-.167 3.074-.219.573-.424 1.117-.419 1.623.014 1.427 1.814 3.012 5.209 4.592a.6.6 0 01.338.41c.567 2.33.847 4.716.838 7.093-.014 4.773-1.229 9.608-3.51 13.99a.613.613 0 01-.542.329l-.005-.015z" fill="#408F95"/><path d="M43.909 28.771a.615.615 0 01-.348-1.122c.429-.29.6-.963.734-1.632l1.17-5.732c.182-.883.368-1.795.339-2.678-.01-.296-.043-.606-.081-.925-.1-.903-.21-1.924.243-2.855a.614.614 0 011.1.54c-.3.61-.214 1.374-.129 2.18.038.335.072.679.086 1.017.033 1.027-.167 2.01-.362 2.965L45.49 26.26c-.138.673-.372 1.804-1.248 2.4a.603.603 0 01-.342.106l.009.004zm-5.694 3.867a.598.598 0 01-.462-.215c-.224-.263-.562-.654-.957-1.141-1.319-1.628-1.924-2.367-2.18-3.04-.691-1.776-.291-3.466-.144-4.1.096-.41.215-.845.457-1.246.605-.983 1.705-1.36 2.781-1.661.5-.139 1.257-.353 1.966-.029.972.449 1.2 1.561 1.362 2.372l.034.153a8.055 8.055 0 001.361 3.083c.2.273.138.66-.133.86a.614.614 0 01-.857-.134 9.37 9.37 0 01-1.571-3.556l-.034-.157c-.128-.645-.266-1.313-.671-1.5-.276-.128-.69-.028-1.124.096-.876.244-1.695.516-2.066 1.122-.148.243-.229.558-.31.883-.214.907-.395 2.114.09 3.37.191.491.83 1.279 1.986 2.706.39.477.715.864.934 1.117a.62.62 0 01-.062.869.603.603 0 01-.4.148zm5.628 43.515a.609.609 0 01-.362-.12c-2.91-2.138-4.928-4.41-6.004-6.758l-.076-.167a14.3 14.3 0 00-1.372-2.468 14.136 14.136 0 00-3.061-3.16.615.615 0 01-.124-.854 21.214 21.214 0 012.019-2.367c.138-.139.276-.273.405-.401.547-.53.976-.95 1.352-1.647.219-.406.386-.845.495-1.303a.612.612 0 111.19.286 6.609 6.609 0 01-.609 1.6c-.462.858-1.005 1.383-1.576 1.942-.124.124-.257.248-.39.387a19.629 19.629 0 00-1.543 1.756 15.413 15.413 0 012.847 3.055c.81 1.155 1.248 2.138 1.486 2.668l.071.162c.986 2.157 2.871 4.267 5.614 6.281a.616.616 0 01-.362 1.112v-.004z" fill="#408F95"/><path d="M43.842 76.153a.612.612 0 01-.58-.802c.875-2.74 1.965-5.179 3.122-7.761.681-1.523 1.386-3.098 2.038-4.735 1.671-4.186 1.586-5.966.871-7.622-.952-2.205-3.123-3.408-4.78-4.029a.617.617 0 01.428-1.155c1.881.702 4.352 2.09 5.476 4.692.966 2.248.738 4.568-.857 8.563-.662 1.66-1.371 3.245-2.057 4.782-1.143 2.554-2.219 4.964-3.076 7.637a.611.611 0 01-.585.425v.005zM40.97 46.422a.612.612 0 01-.528-.916c.643-1.137 1.386-2.974 1.267-5.29-.167-3.24-1.967-5.455-2.733-6.257a.614.614 0 01.886-.85c.861.903 2.885 3.39 3.07 7.046a10.95 10.95 0 01-1.423 5.956.61.61 0 01-.533.31h-.005zM28.873 56.33c-1.476 0-2.89-.572-3.819-1.594-.838-.921-1.333-2.181-1.561-3.966-.538-4.229.495-8.434 1.49-12.5l.028-.115c.129-.52.234-1.06.029-1.384-.124-.191-.39-.349-.757-.44-1.857-.458-3.804 1.017-4.614 2.707-.914 1.904-.904 4.205-.895 6.238 0 .42.024.797.043 1.174.043.764.086 1.556-.029 2.688a18.394 18.394 0 01-.619 3.236.614.614 0 01-.757.42.614.614 0 01-.419-.76c.286-.987.476-2.004.576-3.02.105-1.036.062-1.748.024-2.502a24.05 24.05 0 01-.047-1.236c-.015-2.162-.024-4.615 1.014-6.777 1.01-2.105 3.461-3.995 6.013-3.365.686.167 1.205.506 1.5.973.467.735.31 1.595.129 2.34l-.029.114c-.971 3.956-1.971 8.052-1.462 12.051.196 1.523.59 2.568 1.248 3.294.904.992 2.442 1.413 3.914 1.078 1.333-.305 2.609-1.193 3.59-2.505l.052-.072c.357-.477.795-1.07 1.547-1.193.72-.12 1.139.43 1.39.754.058.076.144.186.2.243.196-.076 1.058-.64 3.048-4.868a.614.614 0 01.814-.296c.305.143.438.51.295.816-2.461 5.236-3.594 5.766-4.451 5.551-.42-.105-.672-.434-.877-.702-.07-.09-.18-.233-.242-.286-.253.062-.495.392-.733.711l-.058.077c-1.157 1.541-2.68 2.596-4.3 2.964a5.734 5.734 0 01-1.27.143l-.005.01zm-7.967 4.306h-.043a93.588 93.588 0 00-4.49-.22c-.776-.019-1.409-.024-1.952-.029-1.6-.014-2.48-.023-3.77-.348-1.81-.453-3.21-1.145-4.281-2.124-1.343-1.227-2.076-2.911-1.962-4.506.062-.883.524-1.76 1.176-2.238.467-.34 1.014-.454 1.538-.325.42.105.743.344 1.029.554l.133.1c1.747 1.26 4.195 1.456 6.128 1.49.595.009 1.209-.02 1.818-.087a.608.608 0 01.677.544.612.612 0 01-.543.678 15.22 15.22 0 01-1.971.091c-2.114-.033-4.795-.263-6.823-1.718l-.148-.11c-.21-.158-.41-.305-.595-.349-.176-.043-.348 0-.524.125-.352.257-.638.816-.671 1.326-.086 1.227.5 2.54 1.566 3.513.914.836 2.143 1.437 3.752 1.838 1.152.286 1.886.296 3.486.31.547.005 1.19.01 1.97.029a95.47 95.47 0 014.548.22.614.614 0 01-.043 1.226l-.005.01zm33.863 35.057a.59.59 0 01-.395-.148c-5.171-4.41-10.475-6.911-15.765-7.441-.51-.052-1 .067-1.676.234-1.605.391-4.033.988-9.356-.248-4.276-.988-7.456-.993-10.637-.01-.019.005-.038.01-.062.014-1.79.358-3.395-.085-4.09-1.13-.485-.846-.371-1.47-.2-1.857.586-1.29 2.686-1.704 3.943-1.957h.01c.256-.172.694-.697.77-1.15.034-.201-.019-.316-.085-.397-1.224-.797-2.619-1.15-4.1-1.527-.476-.12-.957-.243-1.438-.377-.019-.005-.038-.014-.057-.02C6.875 77.77 2.41 75.695.076 71.309a.611.611 0 01-.053-.44c.243-.968.814-1.665 1.652-2.013 1.257-.52 2.852-.134 3.871.477 1.152.573 2.248 1.222 3.305 1.847 1.547.916 3.013 1.776 4.68 2.444l.048.019c.219.11.476.138.638.072.066-.03.166-.091.233-.296.162-.578.195-1.241.224-1.89.066-1.409.138-3.003 1.78-3.943 1.448-.725 3.276-.663 4.024.835.919 1.532.195 3.298-.386 4.716l-.086.21c1.172 3.45 4.6 5.088 7.376 6.405 3.623 1.189 7.59.635 11.208-.014a654.148 654.148 0 01-17.084-17.956.614.614 0 11.905-.83 662.912 662.912 0 0017.874 18.753.612.612 0 01-.324 1.036c-4.066.749-8.675 1.593-12.994.166l-.071-.028c-3.052-1.447-6.856-3.25-8.123-7.374a.61.61 0 01.02-.411l.17-.425c.53-1.284 1.072-2.61.448-3.656-.428-.854-1.523-.768-2.37-.344-.977.559-1.067 1.475-1.139 2.917-.033.716-.066 1.456-.28 2.19-.22.654-.63.94-.939 1.065-.485.2-1.095.167-1.633-.096-1.743-.701-3.242-1.584-4.823-2.52-1.043-.615-2.119-1.25-3.271-1.828-.776-.463-1.957-.778-2.814-.42-.42.172-.7.487-.867.955 2.172 3.87 6.338 5.799 10.78 7.58.457.128.914.248 1.371.362 1.538.387 3.124.788 4.538 1.733a.743.743 0 01.095.076c.39.391.557.926.467 1.499-.153.95-.962 1.823-1.49 2.085a.574.574 0 01-.153.053l-.105.02c-.819.161-2.742.548-3.066 1.26-.029.066-.12.266.124.7.38.569 1.528.822 2.776.578 4.266-1.307 8.075-.735 11.241 0 5.042 1.165 7.213.64 8.794.249.733-.182 1.367-.335 2.086-.263 5.542.554 11.075 3.155 16.436 7.732.257.22.29.606.071.864a.607.607 0 01-.466.215l-.005.019zm24.898 6.902a.595.595 0 01-.434-.182c-1.37-1.389-6.008-6.028-8.227-7.479a67.882 67.882 0 00-1.143-.735c-.362-.22-.728-.44-1.09-.654a44.33 44.33 0 01-2.219-1.374c-1.814-1.232-3.442-2.735-5.018-4.186-1.972-1.824-4.014-3.709-6.371-4.983-1.547-.84-3.89-2.105-3.576-4.286a.614.614 0 111.214.176c-.176 1.232 1.29 2.139 2.948 3.031 2.495 1.35 4.59 3.284 6.618 5.16 1.542 1.422 3.138 2.897 4.87 4.07.696.473 1.439.912 2.157 1.337a141.323 141.323 0 011.124.674l.062.037c.181.115.676.435 1.095.707 1.905 1.246 5.333 4.553 7.428 6.639 0-.024 0-.048.01-.076.004-.072.028-.244.052-.454.038-.286.071-.525.1-.697a.613.613 0 111.21.191 54.12 54.12 0 00-.096.664c-.024.195-.043.363-.052.425a10.62 10.62 0 00-.048 1.369.624.624 0 01-.372.583.596.596 0 01-.238.047l-.004-.004z" fill="#408F95"/><g filter="url(#filter0_d_1_1245)"><path d="M64.945 123.911a.588.588 0 01-.386-.139c-2.961-2.415-6.133-4.42-9.422-5.956-3.548-1.657-4.924-1.38-6.252-1.113-.676.134-.871.616-1.181 1.518-.119.344-.238.697-.41 1.041a.618.618 0 01-.376.315c-1.161.343-2.376.778-3.547 1.203-3.87 1.398-7.875 2.839-11.794 1.689a.612.612 0 01-.428-.468c-.295-1.479.447-1.966.938-2.291.143-.095.28-.181.38-.286a.58.58 0 01.158-.114c1.257-.631 2.61-.96 4.038-1.303.585-.144 1.19-.287 1.78-.459 1.02-.501 2.2-.782 3.243-1.035.028-.005.057-.015.085-.02-.533-.673-2.009-1.894-2.909-2.095-1.528-.138-3.038-.062-4.49.005-1.509.072-3.07.148-4.7 0-4.218-.578-8.498-.64-12.64-.702-2.086-.033-4.238-.067-6.361-.162-3.338-.372-5.728-1.112-7.795-2.406a.633.633 0 01-.257-.324c0-.01-.005-.019-.01-.029a.065.065 0 00-.009-.028.648.648 0 01.048-.411c.023-.043.047-.091.071-.129 1.105-1.861 3.004-2.806 5.637-2.811 5.752-.458 11.204-.196 16.97.086 1.462.072 2.933.143 4.414.2h.004c.41 0 .857.048 1.295.096 1.086.114 2.11.224 2.971-.296.129-.086.22-.263.243-.501.043-.444-.147-.926-.362-1.136a.598.598 0 01-.114-.158c-.5-1.002-1.18-1.966-1.9-2.988-1.309-1.861-2.666-3.79-3.056-6.142-.005-.034-.01-.067-.01-.1 0-1.39.652-2.01 1.205-2.287a.575.575 0 01.2-.062c2.366-.3 4.69.802 6.066 2.869.157.238.295.453.419.653.333.526.571.903.942 1.28a.665.665 0 01.1.129c.757 1.331 1.272 2.763 1.767 4.152.238.663.462 1.298.714 1.914 1.576.076 3 .353 4.242.83.49.187 2.195.883 2.195.883l-.462 1.136s-1.685-.687-2.17-.873c-1.22-.468-2.643-.726-4.234-.764a.613.613 0 01-.547-.372c-.324-.759-.61-1.561-.89-2.339-.467-1.312-.953-2.668-1.638-3.885-.438-.449-.724-.907-1.053-1.427-.123-.19-.252-.401-.404-.63-1.095-1.642-2.914-2.534-4.776-2.344-.205.13-.433.401-.443 1.089.357 2.057 1.62 3.851 2.843 5.589.695.988 1.414 2.009 1.952 3.064.447.506.71 1.332.638 2.048-.057.606-.348 1.112-.805 1.417-1.238.745-2.576.606-3.756.477-.424-.042-.829-.085-1.195-.085a541.81 541.81 0 01-4.448-.206c-5.732-.281-11.15-.544-16.836-.086H8.39c-1.752 0-3.062.454-3.976 1.38.243.181.424.415.49.639a.858.858 0 01.039.215c1.59.73 3.452 1.193 5.818 1.456 2.066.091 4.209.124 6.285.157 4.176.062 8.494.129 12.76.712 1.514.138 3.033.066 4.504 0 1.51-.072 3.067-.148 4.695 0 .024 0 .043.004.067.009 1.39.282 4.037 2.391 4.109 3.513a.829.829 0 01-.576.854c-.234.062-.429.11-.634.158-1 .239-2.133.515-3.033.964-.033.019-.071.029-.104.043-.634.181-1.272.334-1.881.482-1.328.32-2.58.625-3.695 1.169a4.33 4.33 0 01-.5.373c-.324.215-.471.31-.457.654 3.424.84 7.1-.482 10.656-1.766 1.1-.397 2.233-.807 3.347-1.146.086-.21.162-.429.243-.659.31-.911.7-2.047 2.1-2.324 1.452-.291 3.104-.62 7.008 1.203 3.386 1.58 6.642 3.637 9.68 6.119a.62.62 0 01.09.864.606.606 0 01-.475.224l-.005-.014z" fill="#408F95"/></g><path d="M101.978 133.056a.6.6 0 01-.381-.134.62.62 0 01-.095-.864 41.087 41.087 0 017.266-7.092 40.908 40.908 0 016.537-4.053.612.612 0 01.543 1.098 40.125 40.125 0 00-6.342 3.928 39.644 39.644 0 00-7.047 6.883.605.605 0 01-.481.229v.005zm-16.922 21.015a4.76 4.76 0 01-.852-.076c-3.005-.564-4.243-3.876-5.957-8.463-1.071-2.878-2.29-6.133-4.228-9.627a46.584 46.584 0 00-7.89-10.405.614.614 0 11.867-.869 47.74 47.74 0 018.094 10.682c1.981 3.57 3.271 7.021 4.305 9.794 1.57 4.21 2.704 7.25 5.032 7.685 1.72.32 3.524-.816 4.385-1.365 2.215-1.403 3.129-3.403 4.19-5.718.148-.32.296-.645.448-.969 1.695-3.589 3.9-7.112 6.552-10.477a.615.615 0 01.961.764c-2.594 3.293-4.751 6.735-6.404 10.243-.152.319-.295.639-.442.954-1.096 2.391-2.133 4.649-4.652 6.243-.867.549-2.547 1.614-4.414 1.614l.005-.01zm3.542-60.779c-.243 0-.49-.062-.705-.248-.376-.334-.371-.835-.367-1.198 0-.31.053-.616.153-.912a.617.617 0 01.776-.391.619.619 0 01.39.778c-.057.177-.09.353-.09.54v.18c.08-.018.171-.052.224-.066a27.974 27.974 0 012.466-.683.61.61 0 01.733.463.612.612 0 01-.462.735c-.88.2-1.642.416-2.337.645-.186.062-.477.157-.776.157h-.005zm4.166 25.168a.98.98 0 01-.233-.029c-.348-.081-.614-.343-.795-.768-.781-1.852-.029-4.568 0-4.682.01-.034.923-3.303 1.89-8.945.148-.869.19-1.246.138-1.752-.152-1.532-1.038-2.988-2.638-4.32a.602.602 0 01-.219-.429.642.642 0 01.157-.458c1.148-1.27 2.262-1.8 3.214-1.537.61.167.962.611 1.129.826.828 1.045 1.39 1.47 1.89 1.842.505.382.986.74 1.462 1.57.828 1.452.923 3.017 1 4.277.057.94.104 1.752.428 2.095.452.478.652.955.614 1.442-.033.415-.266.735-.414.95l-6.585 9.24c-.319.444-.666.668-1.043.668l.005.01zm-.347-20.996c1.537 1.432 2.404 3.011 2.57 4.701.067.683 0 1.179-.152 2.081-.98 5.709-1.909 9.035-1.918 9.069-.005.024-.634 2.291-.1 3.751l6.575-9.226c.071-.095.186-.258.19-.339.01-.119-.08-.281-.266-.477-.648-.697-.705-1.709-.776-2.888-.072-1.188-.153-2.539-.838-3.737-.353-.616-.662-.85-1.133-1.203-.529-.396-1.19-.892-2.105-2.052-.129-.162-.276-.353-.5-.415-.371-.1-.928.167-1.543.73l-.004.005zm4.656 28.757c-.262 0-.462-.1-.59-.191a.62.62 0 01-.205-.754 31.546 31.546 0 012.09-3.881c2.733-4.31 5.085-5.78 6.285-5.703.281.014 1.128.062 1.405.72.114.272.095.578-.058.902-.709 1.528-4.051 5.174-4.432 5.585a.699.699 0 01-.062.057l-3.39 2.802c-.42.343-.772.458-1.052.458l.009.005zm7.49-9.298c-.638 0-2.691 1.231-5.162 5.136-.414.654-.81 1.331-1.176 2.028l2.471-2.047c.976-1.06 3.457-3.866 4.119-5.098a2.164 2.164 0 00-.229-.024h-.023v.005z" fill="#408F95"/><path d="M80.2 129.471a.638.638 0 01-.438-.181 37.523 37.523 0 00-6.018-4.964.615.615 0 01-.172-.85 1.154 1.154 0 01.19-.711.604.604 0 01.53-.267 8.206 8.206 0 015.627 2.577c1.029 1.103 1.71 2.869.771 4.148a.62.62 0 01-.447.248H80.2zm-5.004-5.646a39.071 39.071 0 014.713 3.88c-.038-.596-.404-1.279-.885-1.799a6.983 6.983 0 00-3.828-2.086v.005zm7.117-2.578a.616.616 0 01-.59-.448l-1.543-5.465a2.29 2.29 0 01-.553-.917c-.166-.549-.061-1.007.043-1.451a7.19 7.19 0 00.11-.501c.062-.344.052-.749.033-1.546-.024-1.06-.195-1.804-.352-2.463-.21-.888-.386-1.652-.033-2.625.152-.416.37-.807.661-1.155a.614.614 0 01.857-.086c.877.706 1.51 1.556 1.881 2.515.395 1.017.376 1.871.353 3.05v.062c-.015.578-.015 1.155-.015 1.737 0 .926 0 1.886-.047 2.836-.096 1.88-.162 3.851-.196 5.861a.615.615 0 01-.533.601c-.028 0-.052.005-.08.005l.004-.01zm-1.728-15.001c-.229.635-.115 1.122.076 1.928.157.683.357 1.532.385 2.716.02.878.029 1.322-.052 1.785-.038.215-.08.401-.124.578-.095.401-.133.587-.066.806a1.1 1.1 0 00.333.492.618.618 0 01.18.291l.496 1.747c.024-.63.052-1.255.086-1.871.047-.916.047-1.861.047-2.773 0-.587 0-1.174.015-1.761v-.062c.023-1.112.038-1.79-.267-2.578a4.628 4.628 0 00-1.005-1.541 2.621 2.621 0 00-.1.243h-.004zm5.423-60.951c-.534 0-.948-.539-1.1-.735-.657-.845-.586-1.837-.52-2.801.063-.855.125-1.738-.223-2.692a5.495 5.495 0 00-.486-.979c-.304-.52-.614-1.06-.376-1.79.281-.864 1.153-1.498 1.952-1.413 1.453.153 2.181 2.54 2.234 3.723.08 1.92-.091 3.838-.51 5.709-.043.19-.157.702-.638.911a.85.85 0 01-.328.072l-.005-.005zm-.9-9.192c-.2 0-.538.272-.638.577-.062.186 0 .325.271.788.176.3.395.677.576 1.179.438 1.202.357 2.31.296 3.202-.062.902-.086 1.485.228 1.919.352-1.675.495-3.394.424-5.107-.043-1.05-.69-2.506-1.133-2.554h-.02l-.004-.004zM37.705 57.662a.613.613 0 01-.1-1.217c1.034-.177 1.948-.535 2.714-1.074 1.052-.74 1.705-1.723 3.005-3.675.304-.458.6-.926.876-1.384a.616.616 0 011.052.635c-.286.477-.59.954-.905 1.431-1.342 2.015-2.08 3.127-3.318 4-.92.645-2 1.079-3.219 1.284a.705.705 0 01-.1.01l-.005-.01zm10.97 50.417c-.038 0-.076 0-.115-.01a.61.61 0 01-.485-.72c.552-2.879.742-3.265 1.195-3.719.395-.396.719-.563 1-.711.223-.114.404-.21.633-.42.195-.176.343-.444.367-.668l-3.586.148c-1.085.043-2.576.105-3.723-.73-.805-.587-1.29-1.752-.68-2.62.38-.54 1.004-.707 1.56-.798a17.478 17.478 0 012.543-.229h.3c.472-.005.915-.01 1.324-.105.48-.114.962-.367 1.428-.62l4.01-2.148a.614.614 0 01.576 1.083l-4.01 2.148c-.509.272-1.085.582-1.723.73-.543.13-1.076.13-1.595.134h-.29c-.791.014-1.581.086-2.362.215-.29.047-.638.124-.762.296-.157.22.09.687.4.911.743.54 1.776.544 2.952.497l4.042-.167a.59.59 0 01.514.243c.624.826.229 1.943-.457 2.577a3.701 3.701 0 01-.9.611c-.242.125-.438.225-.695.487-.185.186-.333.334-.857 3.084a.61.61 0 01-.6.496l-.004.005zm25.95 10.338h-.048l-.328-.024c-1.786-.138-3.638-.286-5.366-1.045a36.335 36.335 0 01-4.68-2.453c-2.448-1.49-5.153-2.793-8.043-3.867l-.266-.085a.662.662 0 01-.257-.163 7.221 7.221 0 01-1.338-2.023l-.038-.086c-.267-.611-.543-1.237-.443-2.015.086-.673 1.785-4.844 2.728-5.35.029-.014.09-.053.176-.105.89-.535 1.79-1.05 2.338-1.155a14.082 14.082 0 015.042-.062c.09.014.176.048.253.105a26.43 26.43 0 017.242 7.699 26.549 26.549 0 013.628 9.937.611.611 0 01-.605.706l.005-.014zm-18.198-8.596l.138.043c2.986 1.107 5.761 2.444 8.275 3.976 1.405.854 2.652 1.551 4.533 2.377 1.4.615 2.976.782 4.519.907a25.286 25.286 0 00-3.333-8.706 25.26 25.26 0 00-6.79-7.255c-1.51-.234-3.01-.21-4.466.081-.271.052-.929.391-1.943 1.002-.123.077-.19.115-.238.139-.462.463-1.99 3.699-2.08 4.419-.058.44.114.826.352 1.365l.038.091a5.908 5.908 0 001 1.556l-.005.005zm-3.839-32.542a.618.618 0 01-.567-.854 10.85 10.85 0 01.758-1.48c.552-.893 1.68-2.735 3.7-3.35a3.56 3.56 0 01.628-.134c.095-.015.2-.024.347-.053 1.329-.262 2.105-.978 3.176-1.976.59-.553 1.262-1.174 2.148-1.833 1.123-.835 1.828-1.202 2.342-1.47.552-.286.89-.463 1.447-1.055.839-.892 1.486-2.396.915-3.603-.172-.368-.553-.716-.857-.664-.267.048-.52.349-.786.669l-.2.238c-.762.874-1.743 1.437-2.695 1.981a17.9 17.9 0 00-1.4.86c-.776.548-1.514 1.264-2.233 1.956-1.533 1.49-3.118 3.026-5.332 3.227a.623.623 0 01-.667-.554.615.615 0 01.557-.668c1.786-.163 3.147-1.485 4.595-2.888.747-.725 1.523-1.475 2.376-2.076.485-.339.995-.635 1.495-.921.9-.516 1.752-1.007 2.38-1.723.062-.072.12-.144.181-.215.362-.434.81-.974 1.52-1.093.975-.172 1.813.582 2.175 1.35.814 1.738.02 3.747-1.133 4.974-.7.74-1.171.988-1.771 1.298-.505.263-1.133.587-2.176 1.37-.829.616-1.476 1.217-2.043 1.747-1.128 1.05-2.1 1.952-3.77 2.282-.182.033-.31.052-.425.066a2.2 2.2 0 00-.433.091c-1.571.477-2.504 1.995-3.004 2.811-.257.42-.486.864-.676 1.318a.615.615 0 01-.567.377l-.005-.005zm57.393 77.298c-1.667 0-3.333-.167-4.971-.501-1.247-.258-2.99-.769-3.747-2.267-.372-.74-.41-1.58-.438-2.258-.119-2.659-.081-5.413 1.742-7.284.396-.405.6-.515 1.591-1.035.385-.201.9-.478 1.609-.859.938-.506 1.743-.96 2.443-1.356 2.904-1.637 4.228-2.382 6.07-1.971.357.081.715.238 1.372.53 3.037 1.341 5.656 3.336 7.565 5.765 1.852 2.353 1.772 3.466 1.748 3.833-.072 1.002-.595 1.995-1.572 2.959-1.337 1.327-3.142 2.358-5.513 3.155a24.83 24.83 0 01-7.909 1.289h.01zm3.361-16.409c-1.123 0-2.276.649-4.528 1.918a148.5 148.5 0 01-2.461 1.365c-.714.387-1.238.664-1.624.864-.985.52-1.033.549-1.281.807-1.48 1.522-1.504 3.985-1.395 6.372.029.615.057 1.25.31 1.756.39.778 1.309 1.294 2.895 1.613 4.071.836 8.308.573 12.246-.749 2.19-.735 3.837-1.67 5.037-2.864.752-.749 1.162-1.479 1.21-2.171.042-.65-.481-1.709-1.486-2.988-1.79-2.272-4.242-4.138-7.099-5.403-.586-.258-.905-.401-1.148-.454a3.02 3.02 0 00-.676-.076v.01z" fill="#408F95"/></g><defs><clipPath id="clip0_1_1245"><path fill="#fff" d="M0 0h194v181H0z"/></clipPath><filter id="filter0_d_1_1245" x="-1.414" y="94.064" width="70.975" height="37.861" filterUnits="userSpaceOnUse" color-interpolation-filters="sRGB"><feFlood flood-opacity="0" result="BackgroundImageFix"/><feColorMatrix in="SourceAlpha" values="0 0 0 0 0 0 0 0 0 0 0 0 0 0 0 0 0 0 127 0" result="hardAlpha"/><feOffset dy="4"/><feGaussianBlur stdDeviation="2"/><feComposite in2="hardAlpha" operator="out"/><feColorMatrix values="0 0 0 0 0 0 0 0 0 0 0 0 0 0 0 0 0 0 0.25 0"/><feBlend in2="BackgroundImageFix" result="effect1_dropShadow_1_1245"/><feBlend in="SourceGraphic" in2="effect1_dropShadow_1_1245" result="shape"/></filter></defs></svg>