<svg width="63" height="63" viewBox="0 0 63 63" fill="none" xmlns="http://www.w3.org/2000/svg">
<path d="M34.5028 33.3606C34.4581 33.2015 34.3521 33.0666 34.2081 32.9856C34.0642 32.9045 33.8939 32.8838 33.7347 32.9281C33.6337 32.9565 33.5323 32.9841 33.4305 33.0107C33.3488 33.0291 33.2717 33.0638 33.2037 33.1127C33.1357 33.1616 33.0783 33.2236 33.0349 33.2952C32.9914 33.3667 32.9628 33.4463 32.9508 33.5291C32.9388 33.612 32.9436 33.6964 32.9649 33.7773C32.9862 33.8583 33.0236 33.9341 33.0749 34.0003C33.1262 34.0665 33.1902 34.1216 33.2633 34.1625C33.3364 34.2034 33.4169 34.2291 33.5001 34.2381C33.5834 34.2472 33.6676 34.2394 33.7477 34.2152C33.8559 34.1866 33.9634 34.1575 34.0703 34.1277C34.2292 34.0831 34.364 33.9773 34.4451 33.8335C34.5262 33.6897 34.5469 33.5196 34.5028 33.3606Z" fill="#408F95"/>
<path d="M61.0541 37.2302C58.4859 37.871 55.795 37.8305 53.2473 37.1125C53.6608 35.8562 53.8967 34.5482 53.9481 33.2265C54.1208 28.563 52.0234 24.7139 47.8825 22.0951C45.9507 20.8878 43.8228 20.0275 41.5947 19.5533C40.4088 19.2965 39.2433 19.1206 38.3419 19.0065C38.536 18.2631 38.7791 17.5335 39.0697 16.8222C39.1183 16.7112 39.1335 16.5885 39.1135 16.4689C39.0934 16.3494 39.039 16.2384 38.9567 16.1493C38.8745 16.0603 38.7682 15.9971 38.6506 15.9676C38.5331 15.9381 38.4095 15.9434 38.295 15.983C35.312 17.0238 32.6826 18.8837 30.7077 21.3497C28.2393 21.6312 26.3176 22.6282 25.1489 24.2366C25.1443 24.2431 25.1391 24.2505 25.1346 24.2572C25.0125 24.4397 22.3069 28.3892 17.5834 27.9123C19.1559 26.4485 22.005 23.2182 22.713 18.5047C23.6477 12.2857 21.9594 7.79118 20.8844 5.68402C22.8907 6.37832 26.5781 8.36782 28.2142 13.8384C28.2808 14.088 29.0325 16.6809 31.9481 18.4191C32.0901 18.5037 32.2598 18.5285 32.4201 18.4879C32.5803 18.4474 32.7179 18.3448 32.8025 18.2029C32.8871 18.0609 32.9119 17.8911 32.8713 17.7309C32.8308 17.5707 32.7282 17.4331 32.5863 17.3485C30.0477 15.8354 29.424 13.5385 29.4186 13.5179C29.4166 13.5094 29.4142 13.5007 29.4116 13.4921C26.8859 5.02956 19.9598 4.12866 19.6661 4.09494C19.5461 4.08108 19.4246 4.10238 19.3165 4.15624C19.2084 4.21011 19.1182 4.29423 19.057 4.39836C18.9958 4.5025 18.9661 4.62218 18.9717 4.74286C18.9772 4.86353 19.0177 4.98 19.0881 5.07811C19.1252 5.12869 22.6971 10.2224 21.4805 18.32C20.5892 24.2509 15.8514 27.7514 15.8043 27.7863C15.7083 27.8556 15.634 27.9509 15.5902 28.061C15.5464 28.1711 15.5348 28.2914 15.557 28.4078C15.5791 28.5242 15.6339 28.6319 15.715 28.7182C15.7962 28.8045 15.9002 28.866 16.015 28.8953C16.7734 29.0922 17.5536 29.1931 18.3371 29.1954C23.1327 29.1954 25.9599 25.2544 26.161 24.9644C26.937 23.8986 28.1012 23.1754 29.6286 22.8032C28.2224 24.9078 27.1744 27.2306 26.5269 29.6776C26.2774 30.6834 25.8562 31.6387 25.2818 32.5013C24.8967 33.0793 24.4365 33.6035 23.9132 34.0601C20.4201 34.0681 16.9305 33.838 13.4687 33.3714C13.4598 33.3701 13.4509 33.3689 13.442 33.3681C4.67762 32.434 1.38661 37.1064 1.25079 37.3058C1.19763 37.3838 1.16289 37.4729 1.14918 37.5663C1.13548 37.6597 1.14317 37.755 1.17167 37.845C2.15909 40.963 3.76025 43.852 5.88092 46.342C8.15003 50.316 12.5239 53.4879 15.8036 55.4527C19.4826 57.6566 24.7748 58.9094 28.0123 58.9094C31.7604 58.9007 35.454 58.011 38.7951 56.3123C39.9893 57.1143 42.0496 58.0672 45.1044 58.0672C46.4889 58.057 47.8673 57.8828 49.2108 57.5484C49.3262 57.5203 49.4311 57.4599 49.5133 57.3743C49.5954 57.2886 49.6515 57.1813 49.6748 57.065C49.6982 56.9486 49.6878 56.828 49.645 56.7173C49.6022 56.6066 49.5288 56.5104 49.4332 56.44C49.4184 56.429 47.9373 55.3217 46.7348 53.1008C46.6959 53.0287 46.6431 52.9651 46.5796 52.9134C46.5161 52.8618 46.443 52.8231 46.3646 52.7997C46.2861 52.7763 46.2038 52.7686 46.1224 52.777C46.041 52.7855 45.962 52.8098 45.89 52.8488C45.818 52.8877 45.7544 52.9405 45.7027 53.004C45.6511 53.0676 45.6125 53.1407 45.5892 53.2192C45.5658 53.2976 45.5582 53.3799 45.5667 53.4614C45.5751 53.5428 45.5996 53.6217 45.6386 53.6937C46.2052 54.7471 46.9125 55.7184 47.7409 56.5812C44.035 57.2267 41.5447 56.4457 40.0697 55.6306C45.0608 52.7921 48.3685 48.8568 49.7606 46.9822C49.9998 46.9948 50.2435 47.0024 50.4918 47.0024C52.0623 47.0168 53.6192 46.7109 55.0674 46.1033C58.1394 44.7855 60.4119 42.0695 61.8214 38.0306C61.8592 37.9221 61.8662 37.8052 61.8417 37.6928C61.8173 37.5805 61.7622 37.4772 61.6826 37.3942C61.6031 37.3112 61.5021 37.2518 61.391 37.2226C61.2798 37.1934 61.1627 37.1955 61.0526 37.2287L61.0541 37.2302ZM28.0113 57.6635C25.5812 57.6635 19.9347 56.475 16.4442 54.3838C13.3959 52.5575 9.37186 49.6625 7.17946 46.0911C8.28474 45.1926 12.1111 42.8032 18.3981 46.2745C18.5374 46.3487 21.8664 48.109 26.8583 48.9487C31.4135 49.7149 38.2399 49.8061 45.0375 45.9671C46.0922 46.3745 47.1884 46.6652 48.3064 46.8341C45.6562 50.2067 38.5946 57.6635 28.0113 57.6635ZM54.5859 44.9558C50.1533 46.8632 45.3011 44.729 45.2526 44.7071C45.1625 44.6657 45.0636 44.6467 44.9646 44.6518C44.8655 44.6569 44.7691 44.6859 44.6837 44.7364C38.1338 48.5381 31.5106 48.4608 27.1078 47.7269C22.3061 46.9264 19.0185 45.193 18.9934 45.1796C14.6598 42.7869 11.3593 42.9943 9.35278 43.5895C8.29763 43.8963 7.3111 44.4025 6.44663 45.0809C4.70525 42.8956 3.3566 40.4245 2.46076 37.7777C3.21176 36.8924 6.32489 33.8656 13.2969 34.6049C13.8565 34.6885 23.1626 36.0383 31.0261 34.7824C31.1873 34.7541 31.3308 34.6636 31.4258 34.5303C31.5208 34.397 31.5596 34.2318 31.5338 34.0702C31.508 33.9086 31.4197 33.7636 31.2879 33.6666C31.1561 33.5695 30.9915 33.5282 30.8295 33.5515C29.1282 33.8124 27.4126 33.9698 25.6922 34.0229C25.9134 33.7593 26.1209 33.4845 26.3137 33.1995C26.9684 32.2183 27.4489 31.1316 27.7341 29.987C28.2984 27.7939 30.6073 20.7314 37.4263 17.6672C36.5419 20.3658 35.1885 26.4195 39.4116 29.6568C38.6606 30.6181 37.561 31.4301 36.1154 32.081C36.0407 32.1146 35.9735 32.1626 35.9174 32.2222C35.8613 32.2818 35.8175 32.3519 35.7885 32.4284C35.7595 32.5049 35.7459 32.5864 35.7484 32.6682C35.7509 32.75 35.7694 32.8305 35.8031 32.9051C35.8367 32.9797 35.8846 33.047 35.9442 33.1031C36.0038 33.1592 36.0739 33.2029 36.1504 33.2319C36.2269 33.2609 36.3084 33.2746 36.3902 33.2721C36.472 33.2696 36.5525 33.251 36.6271 33.2174C39.4419 31.95 41.1411 30.1076 41.6772 27.7412C41.6794 27.7318 41.6814 27.7227 41.6829 27.7127C41.7014 27.6112 42.0987 25.2009 39.6919 23.2894C39.5624 23.1866 39.3974 23.1394 39.2332 23.1582C39.069 23.1771 38.9189 23.2604 38.8161 23.3899C38.7133 23.5194 38.6661 23.6844 38.685 23.8486C38.7038 24.0129 38.7872 24.1629 38.9166 24.2657C40.6716 25.6591 40.4794 27.3301 40.4574 27.4848C40.3692 27.8664 40.2402 28.2374 40.0725 28.5914C37.466 26.4913 37.534 22.8941 38.0576 20.2276C38.9496 20.3378 40.1359 20.5127 41.3394 20.7738C41.346 20.7755 41.3536 20.777 41.3605 20.7783C43.4453 21.231 45.4365 22.0396 47.2467 23.1686C51.0234 25.5696 52.8585 28.9381 52.7012 33.1802C52.6547 34.3783 52.4417 35.5641 52.0685 36.7036C51.5886 36.5092 51.1216 36.2846 50.6702 36.0311C50.5261 35.95 50.3557 35.9295 50.1964 35.9741C50.0372 36.0187 49.9022 36.1246 49.8211 36.2688C49.74 36.4129 49.7195 36.5833 49.7641 36.7425C49.8086 36.9018 49.9146 37.0368 50.0588 37.1179C54.085 39.3801 58.2526 39.0449 60.236 38.6906C58.9429 41.7919 57.0453 43.897 54.5859 44.9554V44.9558Z" fill="#408F95"/>
<path d="M19.7411 38.1344L18.9926 38.434C18.9161 38.4641 18.8464 38.509 18.7874 38.5661C18.7284 38.6232 18.6812 38.6915 18.6487 38.7669C18.6161 38.8423 18.5988 38.9234 18.5977 39.0055C18.5966 39.0877 18.6118 39.1692 18.6423 39.2455C18.6728 39.3217 18.7181 39.3912 18.7756 39.4499C18.8331 39.5085 18.9016 39.5553 18.9772 39.5874C19.0528 39.6195 19.134 39.6364 19.2161 39.637C19.2983 39.6376 19.3797 39.622 19.4558 39.591L20.2044 39.2914C20.2808 39.2613 20.3505 39.2164 20.4096 39.1592C20.4686 39.1021 20.5157 39.0339 20.5483 38.9585C20.5808 38.8831 20.5981 38.802 20.5992 38.7198C20.6003 38.6377 20.5852 38.5562 20.5546 38.4799C20.5241 38.4036 20.4788 38.3342 20.4213 38.2755C20.3639 38.2168 20.2953 38.1701 20.2197 38.138C20.1441 38.1059 20.0629 38.089 19.9808 38.0884C19.8987 38.0878 19.8172 38.1034 19.7411 38.1344Z" fill="#408F95"/>
<path d="M32.4096 39.1187C32.4746 38.9686 32.478 38.799 32.419 38.6464C32.3601 38.4938 32.2435 38.3705 32.0945 38.3031C31.9455 38.2357 31.7759 38.2295 31.6224 38.286C31.4689 38.3425 31.3437 38.457 31.2739 38.6049C31.2163 38.7317 29.891 41.7364 32.2459 44.2444C32.3633 44.3573 32.5183 44.4227 32.6811 44.4279C32.8439 44.433 33.0028 44.3775 33.127 44.2721C33.1867 44.2162 33.2349 44.149 33.2686 44.0744C33.3023 43.9998 33.321 43.9193 33.3236 43.8375C33.3262 43.7556 33.3126 43.6741 33.2836 43.5976C33.2547 43.521 33.2109 43.4509 33.1548 43.3913C31.3827 41.5039 32.3643 39.2207 32.4096 39.1187Z" fill="#408F95"/>
<path d="M35.962 38.4285C36.0302 38.278 36.0357 38.1065 35.9775 37.9518C35.9192 37.7971 35.8018 37.672 35.6513 37.6038C35.5007 37.5356 35.3292 37.5301 35.1745 37.5884C35.0199 37.6466 34.8947 37.764 34.8265 37.9145C34.7691 38.0413 33.4437 41.046 35.7988 43.554C35.9216 43.6848 36.4473 43.7793 36.6798 43.5818C36.7407 43.5265 36.7899 43.4595 36.8244 43.3849C36.8588 43.3102 36.8779 43.2294 36.8805 43.1472C36.8831 43.065 36.8692 42.9831 36.8395 42.9065C36.8097 42.8298 36.7649 42.7599 36.7076 42.7009C34.9362 40.8144 35.9161 38.5327 35.962 38.4285Z" fill="#408F95"/>
<path d="M39.1683 37.0999C39.2334 36.9498 39.2368 36.7802 39.1778 36.6276C39.1189 36.475 39.0023 36.3517 38.8533 36.2843C38.7043 36.2169 38.5347 36.2107 38.3812 36.2672C38.2277 36.3237 38.1025 36.4382 38.0327 36.5861C37.975 36.7129 36.6498 39.7176 39.0047 42.2257C39.1274 42.3566 39.6486 42.4666 39.8856 42.2535C39.9459 42.1979 39.9944 42.1308 40.0285 42.0562C40.0625 41.9815 40.0814 41.9009 40.084 41.8189C40.0866 41.7369 40.0728 41.6553 40.0435 41.5786C40.0143 41.502 39.97 41.432 39.9134 41.3726C38.1405 39.4843 39.1242 37.1993 39.1683 37.0999Z" fill="#408F95"/>
</svg>
