<svg width="71" height="162" viewBox="0 0 71 162" fill="none" xmlns="http://www.w3.org/2000/svg">
<g clip-path="url(#clip0_1_1553)">
<path d="M37.4475 29.3864C36.7925 29.3864 36.108 29.2977 35.4294 29.0672C33.1575 28.3046 31.4816 26.9863 31.4167 26.9331C31.222 26.7794 30.8089 26.4483 30.1893 26.2946C29.9061 26.2237 29.4281 26.1055 29.0741 26.2769C28.897 26.3597 28.8262 26.472 28.6551 26.7853C28.5017 27.069 28.3128 27.4297 27.9411 27.7371C27.0441 28.4878 25.6692 28.5115 23.7455 27.808C23.5272 27.7311 23.3561 27.5656 23.2616 27.3528C22.642 25.9104 21.7392 24.799 20.5885 24.0423C19.1546 23.1024 17.703 22.9723 16.452 22.9191C11.2237 22.7004 4.85664 23.3684 1.52261 23.7822C1.06824 23.8413 0.655176 23.5221 0.590266 23.0669L0.00607391 18.7988C-0.0293317 18.5446 0.0532814 18.2845 0.23621 18.1012C0.413238 17.918 0.666978 17.8234 0.926619 17.853C6.75084 18.4973 11.4598 17.9475 15.3367 16.1622C20.0161 14.0104 23.3029 9.78369 23.716 5.39732C23.7573 4.93622 24.1763 4.59926 24.6248 4.64064C25.085 4.68203 25.4214 5.08992 25.3801 5.55102C24.9139 10.5167 21.2494 15.2814 16.0389 17.6815C12.1266 19.4845 7.45895 20.1171 1.81176 19.6205L2.13631 22.0088C5.67097 21.589 11.5778 21.0334 16.5169 21.2344C17.579 21.2757 19.5559 21.3585 21.4973 22.6295C22.8191 23.4926 23.8989 24.7695 24.6425 26.336C25.7223 26.6848 26.5249 26.7262 26.8671 26.4365C26.9792 26.3419 27.0618 26.2001 27.174 25.9813C27.3805 25.5971 27.6578 25.0709 28.36 24.7458C29.257 24.3261 30.1539 24.5507 30.5847 24.6571C31.5584 24.8995 32.1957 25.4079 32.4376 25.5971C32.4671 25.6207 33.9777 26.803 35.9604 27.471C38.1497 28.2041 40.4806 27.0277 41.3539 26.5843C42.4869 26.0109 43.49 25.2128 44.3221 24.2138C44.5876 23.8945 45.0479 23.8177 45.4019 24.0364C47.1427 25.1123 49.1667 25.5261 51.7926 25.3547C52.247 25.3133 52.6542 25.6739 52.6837 26.135C52.7132 26.5961 52.365 26.9981 51.9048 27.0277C49.2139 27.2109 47.0424 26.8267 45.1364 25.8158C44.2572 26.7498 43.2422 27.5065 42.1092 28.0799C41.3893 28.4464 39.5423 29.3805 37.4416 29.3805L37.4475 29.3864Z" fill="#408F95"/>
<path d="M35.5302 91.2033C35.5302 91.2033 35.5007 91.2033 35.483 91.2033L33.3941 91.091C33.3292 91.091 33.2584 91.0732 33.1994 91.0555C31.1931 90.4525 29.948 89.4062 29.4877 87.9579C29.2044 87.0711 29.3107 86.3026 29.3874 85.6819C29.4405 85.2858 29.4877 84.943 29.3933 84.7893C29.3756 84.7538 28.874 84.003 24.9912 85.3804C24.6371 85.5046 24.2477 85.3804 24.0352 85.0789C23.8169 84.7775 23.8287 84.3636 24.0588 84.074L24.8201 83.1045C27.2158 80.0482 28.9802 77.8077 29.1454 77.1043C28.9212 76.986 28.3724 76.8442 27.918 76.7259C27.0093 76.4895 25.7701 76.1702 24.3185 75.5081C24.0293 75.3781 23.8405 75.0884 23.8287 74.7692C23.8169 74.45 23.988 74.1544 24.2713 74.0007C25.6462 73.2677 28.2485 71.2518 30.721 68.5562C30.7387 68.5325 30.7623 68.5148 30.78 68.4971C30.8154 68.4616 30.9216 68.3611 31.075 68.2074C32.5385 66.7886 33.5062 65.8605 34.1671 65.2575C34.0432 65.2102 33.9252 65.1689 33.8131 65.1216C32.1431 64.4949 30.9157 64.0102 30.3551 63.4604C30.1604 63.2653 30.066 62.9875 30.1132 62.7156C30.1604 62.4436 30.3374 62.2131 30.5853 62.0948C32.1903 61.3559 33.6419 60.3036 34.8988 58.9617C35.5716 58.2464 36.1852 57.4484 36.7281 56.5853C36.5865 56.2069 36.4095 55.8463 36.2029 55.5212C35.8607 54.9892 35.4358 54.5458 34.9461 54.197C34.7277 54.0433 34.592 53.795 34.5861 53.529C34.5861 53.263 34.7041 53.0088 34.9106 52.8433C36.439 51.6669 37.9024 50.39 39.2537 49.054C40.9178 47.4106 41.5079 46.5652 41.4312 45.9209C41.3781 45.4893 41.3781 45.4538 44.2577 40.6478C46.742 36.4979 50.5009 30.2257 52.5662 25.8985C52.7669 25.4787 53.2625 25.3073 53.6815 25.5024C54.1005 25.7034 54.2716 26.1999 54.0769 26.6197C51.9761 31.0179 48.1995 37.3255 45.6975 41.5049C44.5056 43.4971 43.3726 45.3829 43.1129 45.9268C43.1719 47.2746 42.2396 48.4628 40.428 50.2481C39.2655 51.395 38.0322 52.4945 36.7399 53.529C37.0586 53.8542 37.3477 54.2088 37.6015 54.6049C37.9614 55.1606 38.2447 55.7813 38.4394 56.4434C38.5043 56.6681 38.4748 56.9104 38.3568 57.1114C37.7077 58.1991 36.9524 59.2041 36.1144 60.0967C35.0818 61.1963 33.937 62.1244 32.686 62.8693C33.2525 63.1116 33.9075 63.354 34.3914 63.5373C35.3591 63.8979 35.8961 64.1048 36.2089 64.3117C36.3564 64.4063 36.4744 64.5422 36.5393 64.7018C36.6809 65.0447 36.5806 65.4467 36.2915 65.6772C36.2207 65.7304 36.1439 65.7777 36.0672 65.8073C35.8017 66.0142 34.9402 66.7709 32.2375 69.3956C32.1372 69.4961 32.0369 69.5907 31.9425 69.6735C30.0129 71.778 28.0243 73.4746 26.4959 74.5564C27.1804 74.7869 27.7941 74.9465 28.3252 75.0884C29.5526 75.4076 30.4436 75.6382 30.7387 76.5131C31.1163 77.6304 30.3138 78.7654 26.968 83.0395C28.5907 82.7084 30.1368 82.7557 30.8213 83.9144C31.2108 84.5646 31.1163 85.2681 31.0337 85.8829C30.9629 86.4031 30.898 86.8997 31.0691 87.4317C31.3465 88.3007 32.1903 88.9628 33.577 89.4003L35.5656 89.5067C36.0259 89.5303 36.38 89.9264 36.3564 90.3875C36.3328 90.8368 35.961 91.1797 35.5243 91.1797L35.5302 91.2033Z" fill="#408F95"/>
<path d="M26.5665 12.8636C26.4367 12.8636 26.3068 12.8518 26.177 12.8281C25.6105 12.7276 25.1149 12.4084 24.7844 11.9355C24.4539 11.4626 24.33 10.8832 24.4303 10.3157C24.5307 9.74821 24.8493 9.25164 25.3214 8.9206C25.7935 8.58955 26.3717 8.46541 26.9382 8.5659C27.5047 8.6664 28.0004 8.98562 28.3309 9.45855C28.6613 9.93147 28.7852 10.5108 28.6849 11.0783C28.5846 11.6458 28.2659 12.1424 27.7939 12.4734C27.428 12.7276 27.0031 12.8636 26.5606 12.8636H26.5665ZM26.5665 10.2034C26.4662 10.2034 26.3717 10.233 26.2891 10.2921C26.1829 10.3689 26.1121 10.4812 26.0885 10.6054C26.0649 10.7354 26.0885 10.8655 26.1711 10.9719C26.2478 11.0783 26.3599 11.1492 26.4898 11.1729C26.6196 11.1965 26.7494 11.1729 26.8556 11.0901C26.9618 11.0133 27.0327 10.901 27.0563 10.7768C27.0799 10.6468 27.0563 10.5167 26.9795 10.4103C26.9028 10.3039 26.7907 10.233 26.6609 10.2093C26.6314 10.2093 26.6019 10.2034 26.5724 10.2034H26.5665Z" fill="#408F95"/>
<path d="M58.6898 101.135C58.6308 101.135 58.5718 101.135 58.5186 101.117C58.1528 101.04 57.8813 100.727 57.8577 100.348C57.6748 97.4045 55.6213 94.7443 52.8597 93.8812C50.6114 93.1718 48.4281 93.899 46.8761 95.8616C46.587 96.2222 46.0618 96.2872 45.7018 95.9976C45.3419 95.7079 45.277 95.1818 45.5661 94.8212C47.5724 92.2851 50.4108 91.357 53.3612 92.2851C55.9576 93.1009 58.0466 95.1936 58.9966 97.7474C59.3979 96.9375 59.8346 96.0862 60.1886 95.4892C60.5486 94.8921 60.8908 94.2537 61.2154 93.6329C61.6461 92.8231 62.0946 91.9836 62.608 91.1915C63.3633 90.0269 64.3134 88.9037 65.2398 87.816C67.5294 85.1262 69.6891 82.5902 69.276 79.2442C69.1344 78.1033 68.7745 76.856 68.3968 75.5318C67.612 72.7888 66.7445 69.7562 67.7477 67.0901C63.8059 68.5798 59.7814 69.9217 55.7393 71.104C55.4797 71.1809 55.1964 71.1277 54.984 70.9563C54.7716 70.7907 54.6535 70.5247 54.6653 70.2587C54.7539 68.5621 55.7983 67.0546 57.2499 66.2625C56.6481 65.7777 56.1288 65.157 55.7334 64.4476C54.9309 63.0111 54.7361 61.35 55.1846 59.8898C55.6272 58.4533 56.7071 57.206 58.141 56.4671C58.9258 56.0651 59.7696 55.8345 60.6076 55.7813C58.7311 52.6127 58.3829 48.5515 59.7933 45.1346C59.8936 44.8982 60.0942 44.7149 60.342 44.6499C60.5899 44.5789 60.8554 44.6262 61.062 44.7799L61.8881 45.3888C60.9793 41.103 60.1414 33.8554 64.9566 30.3203C63.0447 29.1439 61.8055 26.8443 62.0651 24.5861C62.2598 22.8895 63.6761 21.3998 64.7264 20.448C62.3307 19.6204 58.5482 17.7642 57.1555 16.6587C55.875 15.6419 55.5387 14.1818 56.2291 12.6625C56.3176 12.4615 56.471 12.1955 56.6658 11.9058C54.925 11.5216 52.6413 10.5757 51.2369 9.03282C50.7471 8.58354 50.6468 8.08697 50.6527 7.7441C50.6645 7.10565 51.0481 6.54406 51.4729 6.10069C51.1602 5.97064 50.8238 5.84058 50.517 5.72826C50.0803 5.57456 49.8561 5.09573 50.0095 4.65827C50.1629 4.22082 50.6468 3.99618 51.0776 4.14988C51.5319 4.31541 52.0512 4.52231 52.482 4.69966C52.6649 4.77651 52.8774 4.85927 53.0308 4.92429H53.0426C53.3848 4.92429 53.7271 5.13711 53.8569 5.46224C53.9277 5.63959 53.9395 5.7992 53.9041 5.94108C53.8923 6.04749 53.8569 6.14798 53.8038 6.24257C53.6976 6.42583 53.5737 6.53815 53.432 6.59726C53.3966 6.62682 53.3612 6.65638 53.3258 6.68002C52.5056 7.34803 52.3463 7.63769 52.3286 7.75592C52.3286 7.75592 52.3522 7.77366 52.3758 7.80322C52.3994 7.82686 52.423 7.85051 52.4466 7.87416C54.0929 9.70673 57.1968 10.4043 58.1469 10.4339C58.3475 10.3393 58.5423 10.3038 58.7311 10.3393C59.1087 10.4102 59.4097 10.7531 59.4333 11.1373C59.4569 11.5157 59.2386 11.8585 58.8727 12.0122C58.8255 12.03 58.7724 12.0477 58.7134 12.0595C58.3357 12.3965 57.6099 13.2596 57.5509 14.0872C57.5332 14.3887 57.5745 14.8498 58.1941 15.3404C60.6194 17.2676 65.5526 18.9642 66.4082 19.2243C66.7091 19.2598 66.9983 19.443 67.1222 19.7091C67.4114 20.3239 66.957 20.714 66.4318 21.1633C65.6706 21.8195 63.8826 23.3565 63.7233 24.7694C63.4872 26.7911 65.0215 28.937 66.9924 29.3567C67.3464 29.4336 67.6061 29.7232 67.6474 30.0838C67.6887 30.4385 67.494 30.7873 67.1694 30.9351C62.8204 32.9746 61.7878 38.2891 64.0183 47.1918C64.1068 47.5347 63.9652 47.8953 63.6761 48.0904C63.381 48.2855 62.9975 48.2796 62.7142 48.0727L60.9675 46.7958C60.0411 50.0353 60.8023 53.73 63.0034 56.2897C63.2512 56.5735 63.2748 56.9873 63.0624 57.3006C62.8558 57.6139 62.4605 57.7499 62.1064 57.6316C61.1033 57.3006 59.929 57.4188 58.8904 57.9568C57.8518 58.4947 57.0788 59.3755 56.7661 60.3864C56.4474 61.4091 56.6008 62.5914 57.1791 63.6259C57.7633 64.6723 58.7016 65.429 59.746 65.7009C60.1591 65.8073 60.4247 66.2034 60.3656 66.6231C60.3125 67.0369 59.9526 67.3502 59.5395 67.3502C59.5218 67.3502 59.5041 67.3502 59.4864 67.3502C58.3593 67.3502 57.2677 68.0714 56.7071 69.0527C61.0147 67.7463 65.2988 66.2566 69.4649 64.6132C69.8307 64.4713 70.2438 64.5954 70.468 64.9265C70.6864 65.2516 70.651 65.6891 70.3795 65.9728C68.0723 68.3906 69.0046 71.6302 69.9901 75.0648C70.3854 76.4481 70.7631 77.7604 70.9224 79.0314C71.4299 83.1104 68.922 86.0543 66.5026 88.8978C65.5703 89.9914 64.6969 91.02 64.0006 92.09C63.5285 92.829 63.1155 93.5975 62.6788 94.4133C62.3425 95.0517 61.9884 95.7079 61.6048 96.3463C61.0147 97.3277 60.1237 99.2016 59.6988 100.1C59.5572 100.39 59.4628 100.603 59.4215 100.68C59.274 100.963 58.9848 101.129 58.678 101.129L58.6898 101.135Z" fill="#408F95"/>
<path d="M27.7518 5.75198C27.3565 5.75198 27.0024 5.46823 26.9316 5.06624C26.849 4.61105 27.15 4.1736 27.6043 4.09084L39.6717 1.90356C40.1202 1.8208 40.5628 2.12229 40.6454 2.57748C40.728 3.03267 40.427 3.47012 39.9727 3.55289L27.9053 5.74016C27.8581 5.75198 27.805 5.75198 27.7577 5.75198H27.7518Z" fill="#408F95"/>
<path d="M52.9838 91.8063C52.8126 91.8063 52.6356 91.7531 52.4881 91.6408C52.1163 91.3688 52.0337 90.8427 52.3111 90.4703C57.3977 83.5479 58.1294 81.4611 58.1589 81.3783C58.9496 78.8245 58.8316 75.8924 57.8166 72.6647C57.675 72.2213 57.9228 71.7543 58.3654 71.6125C58.808 71.4765 59.2742 71.7189 59.4158 72.1622C60.537 75.721 60.6491 78.996 59.758 81.8867C59.6872 82.1114 58.926 84.3045 53.6624 91.4693C53.4971 91.694 53.2434 91.8122 52.9897 91.8122L52.9838 91.8063Z" fill="#408F95"/>
<path d="M33.8546 128.848C33.8546 128.848 33.8074 128.848 33.7838 128.848C33.3235 128.842 32.9517 128.458 32.9635 127.997C32.9694 127.542 33.3471 127.175 33.8015 127.175C33.8251 127.175 33.8428 127.175 33.8605 127.175C34.1791 127.175 34.7456 127.11 35.2354 126.72C35.914 126.176 36.15 125.224 35.9907 124.615C35.6898 123.457 34.2794 122.54 32.6213 122.405C32.5859 122.405 32.5446 122.405 32.5033 122.399C32.0489 122.363 31.7066 121.961 31.7361 121.5C31.7716 121.039 32.161 120.696 32.6213 120.726C32.6567 120.726 32.698 120.726 32.7334 120.732C34.2854 120.826 35.5068 120.182 35.7783 119.484C35.9258 119.106 35.8491 118.597 35.5718 118.089C35.0997 117.232 34.1732 116.57 33.0462 116.268C32.8986 116.239 32.7511 116.209 32.6036 116.168C32.1669 116.056 31.9014 115.612 32.0017 115.175C32.102 114.737 32.5328 114.448 32.9694 114.536C33.117 114.566 33.2704 114.595 33.412 114.637C34.3562 114.808 35.1469 114.637 35.7134 114.152C36.2858 113.661 36.5985 112.851 36.5454 112.018C36.1795 111.108 35.4419 110.753 34.2913 110.262C33.5654 109.955 32.816 109.636 32.1551 109.068C31.925 108.873 31.8188 108.577 31.8719 108.282C31.925 107.986 32.1315 107.744 32.4089 107.643C32.9104 107.46 33.4651 107.324 34.0021 107.2C35.6131 106.81 36.6516 106.497 36.8936 105.586C36.4215 104.735 35.8255 103.966 35.1233 103.292C34.4447 102.642 33.6776 102.098 32.8396 101.667C32.5033 101.495 32.3203 101.111 32.403 100.739C32.4856 100.366 32.8101 100.094 33.1878 100.083C35.2236 100.006 36.6044 98.6283 36.5808 97.4342C36.5572 96.4055 35.436 95.6252 35.3062 95.5424C34.9227 95.2883 34.8164 94.768 35.0761 94.3779C35.3357 93.9936 35.855 93.8872 36.2386 94.1473C36.6988 94.4547 38.2154 95.6075 38.2567 97.3987C38.2921 98.9002 37.1945 100.52 35.3711 101.3C35.6898 101.549 35.9907 101.809 36.2858 102.087C37.1886 102.95 37.938 103.955 38.5163 105.066C38.593 105.214 38.6225 105.379 38.6048 105.545C38.3688 107.655 36.4923 108.311 34.9049 108.713C34.9227 108.719 34.9345 108.725 34.9522 108.731C36.1677 109.251 37.5486 109.837 38.1623 111.563C38.1859 111.628 38.1977 111.693 38.2095 111.758C38.357 113.188 37.8318 114.56 36.8109 115.441C36.5572 115.659 36.2799 115.837 35.9789 115.985C36.4097 116.369 36.7755 116.812 37.0411 117.297C37.5663 118.243 37.6784 119.271 37.342 120.117C37.0706 120.808 36.5159 121.382 35.7842 121.784C36.6929 122.399 37.3538 123.244 37.6076 124.208C37.9557 125.532 37.3951 127.151 36.2799 128.05C35.4006 128.754 34.4152 128.872 33.8605 128.872L33.8546 128.848Z" fill="#408F95"/>
<path d="M31.6709 147.925C31.4349 147.925 31.2047 147.824 31.0395 147.635C30.7386 147.286 30.774 146.754 31.128 146.453C31.3345 146.275 31.4644 146.015 31.4821 145.737C31.4998 145.489 31.4231 145.253 31.2637 145.075C31.0218 144.803 30.9864 144.413 31.1634 144.1C31.3405 143.787 31.7063 143.621 32.0545 143.698C32.7331 143.84 33.3645 143.296 33.571 142.717C33.8247 141.995 33.2996 141.729 33.1284 141.641C32.7803 141.463 32.6032 141.067 32.6977 140.689C32.7921 140.311 33.1166 140.051 33.5297 140.056C33.5415 140.056 33.5474 140.056 33.5592 140.056C34.3263 140.056 34.3971 139.294 34.3971 139.14C34.403 138.986 34.3971 138.212 33.6123 138.171C33.1697 138.147 32.8275 137.786 32.8216 137.343C32.8157 136.9 33.152 136.533 33.5946 136.498C34.6332 136.415 34.6391 135.345 34.6391 135.227C34.6391 135.103 34.586 134.038 33.5415 133.997C33.1166 133.979 32.7744 133.654 32.739 133.229C32.7036 132.809 32.9868 132.425 33.3999 132.336C34.049 132.2 34.3145 131.644 34.3499 131.165C34.3794 130.681 34.1906 130.09 33.5592 129.859C33.1225 129.705 32.8983 129.226 33.0517 128.789C33.2051 128.352 33.6831 128.121 34.1198 128.281C35.3472 128.718 36.1143 129.924 36.0199 131.278C35.9727 131.934 35.7307 132.531 35.3472 132.998C35.9609 133.554 36.2913 134.375 36.309 135.179C36.3267 135.966 36.0494 136.776 35.4829 137.355C35.9019 137.869 36.0966 138.537 36.073 139.199C36.0435 139.986 35.6894 140.772 35.0462 141.251C35.3531 141.836 35.3944 142.539 35.1466 143.26C34.8397 144.135 34.0785 144.939 33.1225 145.253C33.152 145.442 33.1638 145.637 33.1461 145.838C33.0989 146.559 32.7626 147.239 32.2197 147.706C32.0604 147.842 31.8656 147.907 31.6709 147.907V147.925Z" fill="#408F95"/>
<path d="M42.5632 135.386C42.4216 135.386 42.2741 135.351 42.1443 135.274C41.6604 134.99 40.492 134.163 40.0967 132.632C39.9845 132.194 39.6423 130.852 40.4448 129.865C41.029 129.144 41.8846 129.025 42.5337 128.984C42.2269 128.612 41.8197 128.121 41.3417 127.406C40.5274 126.188 40.2737 125.484 40.3799 124.734C40.5097 123.823 41.0939 123.25 41.3181 123.031C42.0027 122.357 42.7816 122.097 43.4071 121.961C43.0058 121.636 42.5101 121.187 42.0676 120.56C41.5719 119.869 41.2178 119.082 41.0113 118.213C40.9641 118.012 40.9936 117.799 41.0939 117.616C41.4067 117.049 42.3154 115.671 44.0975 115.074C44.2332 115.027 44.3689 114.991 44.5046 114.956C44.2332 114.678 43.9736 114.383 43.7316 114.069C43.0943 113.236 42.5927 112.314 42.2446 111.32C42.1915 111.161 42.1856 110.989 42.2269 110.83C42.3449 110.392 42.7344 109.293 43.8378 108.631C44.3158 108.347 44.8528 108.187 45.4016 108.152C44.0267 105.793 43.7375 103.777 44.7112 102.76C45.1537 102.299 46.0743 101.844 47.9508 102.317C48.3993 102.429 48.6707 102.885 48.5586 103.334C48.4465 103.783 47.9921 104.055 47.5436 103.943C46.2513 103.618 45.9209 103.919 45.9209 103.919C45.5786 104.28 45.8383 106.189 47.9862 108.985C48.234 109.31 48.2163 109.766 47.939 110.067C47.6616 110.369 47.2073 110.422 46.865 110.197C46.1746 109.748 45.3249 109.695 44.6994 110.073C44.2627 110.333 44.0326 110.741 43.9205 111.031C44.2037 111.758 44.5814 112.432 45.0593 113.047C45.6848 113.856 46.4461 114.53 47.3253 115.057C47.6793 115.269 47.8269 115.713 47.6734 116.097C47.5141 116.481 47.1011 116.694 46.6998 116.594C46.2159 116.475 45.4665 116.387 44.6345 116.67C43.6431 117.001 43.0412 117.699 42.7285 118.154C42.8878 118.686 43.1238 119.165 43.4307 119.597C43.8614 120.2 44.3512 120.584 44.7466 120.897C45.2423 121.287 45.856 121.766 45.6612 122.535C45.4724 123.297 44.7171 123.433 44.1624 123.534C43.6136 123.634 42.9881 123.746 42.4924 124.237C42.3626 124.367 42.0853 124.639 42.0381 124.988C42.0204 125.124 41.985 125.372 42.7285 126.489C43.2064 127.205 43.6136 127.689 43.9087 128.038C44.3807 128.6 44.8233 129.132 44.546 129.824C44.245 130.592 43.4366 130.633 42.8465 130.663C42.4157 130.687 41.9318 130.71 41.743 130.941C41.6191 131.095 41.5129 131.443 41.7194 132.235C41.9554 133.152 42.6872 133.666 42.9881 133.843C43.3894 134.08 43.5192 134.588 43.2891 134.99C43.1356 135.256 42.8524 135.404 42.5691 135.404L42.5632 135.386Z" fill="#408F95"/>
<path d="M48.5302 103.559C48.3709 103.559 48.2056 103.511 48.064 103.417C47.4385 102.997 45.8807 101.779 44.9719 99.651C44.5825 98.7347 44.3641 97.7534 44.3287 96.8076C44.311 96.3465 44.6769 95.9563 45.1372 95.9445C45.5856 95.9149 45.9869 96.2933 45.9987 96.7544C46.0223 97.4933 46.1993 98.2677 46.5062 98.9949C47.2379 100.715 48.4889 101.691 48.9905 102.027C49.374 102.288 49.4744 102.808 49.2147 103.192C49.0554 103.434 48.7898 103.564 48.5184 103.564L48.5302 103.559Z" fill="#408F95"/>
<path d="M25.3854 161.639C24.8603 161.639 24.2879 161.444 23.6624 161.06C23.267 160.818 23.149 160.303 23.3909 159.907C23.6329 159.511 24.1521 159.387 24.5416 159.635C25.0432 159.943 25.3618 159.996 25.4917 159.949C25.5448 159.925 25.5861 159.86 25.7218 159.6C25.9106 159.227 26.188 158.666 26.8725 158.234C27.8756 157.596 29.0735 157.655 29.2092 157.667C29.4571 157.685 29.6577 157.72 29.8111 157.756C29.8111 157.72 29.817 157.685 29.8229 157.649C29.8701 157.235 29.9292 156.668 30.3186 156.171C30.7258 155.645 31.3572 155.344 32.2305 155.273C32.0889 154.463 32.2541 153.617 32.7203 152.92C33.1157 152.329 33.6939 151.897 34.3548 151.667C33.9064 150.49 34.0775 149.178 34.9095 148.392C35.2754 148.043 35.7121 147.86 36.1192 147.771C35.9068 146.872 36.0425 145.903 36.5382 145.046C36.9926 144.259 37.6712 143.686 38.456 143.396C38.0783 142.782 37.7951 142.013 37.9603 141.18C38.096 140.488 38.5858 139.838 39.2113 139.489C38.934 138.768 38.8868 137.958 39.111 137.166C39.4887 135.812 40.5685 134.807 41.9198 134.553C42.3742 134.47 42.8109 134.766 42.8994 135.221C42.9879 135.676 42.687 136.113 42.2326 136.202C41.5009 136.338 40.9344 136.87 40.7279 137.621C40.5213 138.366 40.7279 139.11 41.2766 139.613C41.6012 139.909 41.6484 140.399 41.377 140.748C41.1114 141.097 40.6216 141.18 40.2558 140.937C40.2263 140.914 40.185 140.89 40.0788 140.937C39.8722 141.026 39.648 141.292 39.6067 141.511C39.4828 142.155 40.1378 142.929 40.6452 143.455C40.8872 143.71 40.9521 144.088 40.7928 144.407C40.6393 144.726 40.2971 144.91 39.9489 144.868C38.9989 144.768 38.3203 145.329 37.9898 145.891C37.6594 146.459 37.5177 147.339 38.0842 148.114C38.2908 148.398 38.3026 148.776 38.1137 149.071C37.9249 149.367 37.5709 149.509 37.2286 149.432C37.2227 149.432 36.4438 149.261 36.0661 149.621C35.6885 149.982 35.6117 150.981 36.3612 151.791C36.6031 152.051 36.6562 152.429 36.491 152.743C36.3317 153.056 35.9894 153.239 35.6413 153.192C35.0453 153.115 34.4434 153.381 34.1188 153.866C33.7589 154.404 33.7766 155.131 34.166 155.669C34.3608 155.941 34.3726 156.295 34.2073 156.585C34.0362 156.869 33.7175 157.028 33.3871 156.993C32.3308 156.869 31.7997 157.022 31.6522 157.212C31.5519 157.336 31.5283 157.596 31.4988 157.85C31.4457 158.317 31.369 159.021 30.6904 159.381C30.236 159.618 29.8465 159.511 29.5869 159.44C29.4453 159.405 29.3155 159.369 29.1148 159.358C28.9024 159.34 28.2415 159.375 27.7753 159.671C27.4862 159.854 27.374 160.073 27.2265 160.368C27.0377 160.747 26.7781 161.267 26.1171 161.527C25.8929 161.616 25.651 161.663 25.3972 161.663L25.3854 161.639Z" fill="#408F95"/>
<path d="M22.0223 154.752C21.6978 154.752 21.3909 154.563 21.2552 154.25C21.0723 153.824 21.267 153.334 21.6859 153.145C23.3795 152.406 24.6305 150.833 25.0318 148.93C25.3327 147.517 25.0849 146.181 24.3119 145.069C23.468 143.857 22.0518 143.024 20.4232 142.782C18.5171 142.504 16.5934 143.036 15.1595 144.254C13.8377 145.371 13.0942 146.937 13.0529 148.664C13.0411 149.119 12.6693 149.485 12.215 149.485H12.1973C11.737 149.473 11.3711 149.089 11.377 148.628C11.4242 146.417 12.3802 144.407 14.0737 142.977C15.8794 141.452 18.2811 140.772 20.6651 141.126C22.7481 141.434 24.5774 142.521 25.6868 144.112C26.7135 145.59 27.0617 147.428 26.6663 149.278C26.1471 151.708 24.5361 153.73 22.3528 154.682C22.2465 154.729 22.1285 154.752 22.0223 154.752Z" fill="#408F95"/>
<path d="M20.7304 158.152C18.2225 158.152 15.6438 157.129 13.8086 155.326C11.8141 153.369 10.9821 150.845 11.4778 148.232C11.5663 147.777 12.003 147.481 12.4573 147.564C12.9117 147.653 13.2067 148.09 13.1241 148.545C12.7347 150.591 13.3956 152.571 14.9829 154.126C16.8771 155.988 19.7096 156.845 22.1998 156.325C22.6541 156.23 23.0967 156.52 23.1911 156.969C23.2855 157.424 22.9964 157.868 22.5479 157.962C21.9578 158.086 21.35 158.146 20.7363 158.146L20.7304 158.152Z" fill="#408F95"/>
<path d="M19.9992 162C17.0192 162 14.0392 160.865 11.6493 158.713C8.25631 155.657 6.54504 151.182 7.18824 147.032C7.93766 142.179 12.0447 138.035 17.1844 136.953C22.3772 135.853 27.6527 138.419 30.0189 143.178C32.5032 148.179 30.2786 154.41 25.0622 157.07C24.4839 157.365 23.882 157.608 23.2801 157.785C22.8375 157.915 22.3713 157.661 22.2415 157.218C22.1117 156.774 22.3654 156.307 22.808 156.177C23.3155 156.029 23.8171 155.828 24.3068 155.574C28.7089 153.328 30.6031 148.102 28.526 143.923C26.5315 139.909 21.9111 137.668 17.5326 138.59C13.0597 139.536 9.4896 143.113 8.8464 147.286C8.29171 150.886 9.79645 154.788 12.7764 157.466C15.8213 160.203 19.952 161.048 23.5515 159.671C23.9823 159.505 24.4662 159.724 24.6314 160.156C24.7966 160.587 24.5783 161.072 24.1475 161.237C22.808 161.752 21.4095 162 20.0051 162H19.9992Z" fill="#408F95"/>
<path d="M29.9361 150.75C29.5761 150.75 29.2398 150.514 29.1336 150.147C29.0038 149.704 29.2575 149.237 29.7001 149.107C30.1072 148.989 30.2548 148.859 30.2725 148.817C30.2843 148.758 30.2134 148.551 30.178 148.433C30.0541 148.049 29.8653 147.475 30.237 146.914C30.4318 146.624 30.8271 146.275 31.6356 146.252C32.1017 146.222 32.4853 146.595 32.503 147.062C32.5207 147.499 32.1962 147.871 31.7713 147.925C31.8834 148.279 32.0604 148.811 31.848 149.397C31.6297 150.011 31.0632 150.461 30.1721 150.721C30.0954 150.744 30.0128 150.756 29.9361 150.756V150.75Z" fill="#408F95"/>
<path d="M17.8448 155.415C17.6796 155.415 17.5085 155.415 17.3373 155.415C16.7 155.403 16.045 155.367 15.449 155.308C14.853 155.249 14.2452 155.16 13.6492 155.054C13.1949 154.971 12.8939 154.534 12.9765 154.079C13.0592 153.623 13.4958 153.322 13.9502 153.405C14.5049 153.505 15.0655 153.588 15.6143 153.641C16.1689 153.694 16.7708 153.73 17.3668 153.742C17.9569 153.753 18.4998 153.742 18.8893 153.718C19.8983 153.653 20.9605 153.399 22.0522 152.979C22.4829 152.813 22.9668 153.026 23.132 153.458C23.2973 153.889 23.0848 154.374 22.6541 154.54C21.4031 155.024 20.1698 155.314 18.9955 155.391C18.6768 155.415 18.2756 155.42 17.8389 155.42L17.8448 155.415Z" fill="#408F95"/>
<path d="M30.9442 4.61683C30.6137 4.61683 30.301 4.42174 30.1711 4.09661C29.9469 3.55275 29.8407 2.9675 29.8466 2.37635C28.2947 3.13894 26.7073 3.85424 25.1141 4.50451C24.6892 4.68185 24.1994 4.47495 24.0224 4.04341C23.8453 3.61186 24.0519 3.12712 24.4827 2.94977C26.5716 2.0926 28.6487 1.13493 30.6432 0.0885815C30.9619 -0.0769417 31.3513 -0.0237378 31.611 0.230459C31.8706 0.478743 31.9414 0.868905 31.7821 1.19404C31.4517 1.89751 31.4221 2.74287 31.7172 3.45816C31.8942 3.88379 31.6877 4.37445 31.2628 4.5518C31.1566 4.59318 31.0504 4.61683 30.9442 4.61683Z" fill="#408F95"/>
<path d="M51.585 5.9353C51.3076 5.9353 51.0421 5.79934 50.8828 5.55105C50.6349 5.16089 50.747 4.64067 51.1365 4.39239C51.1837 4.36283 51.2309 4.33327 51.284 4.30371C51.0716 4.16184 50.871 3.99631 50.6821 3.80714C50.216 3.34013 49.9209 2.76671 49.8088 2.18147C46.9291 3.08002 43.9256 3.51157 40.9102 3.49383C40.4499 3.49383 40.0782 3.10958 40.0841 2.64848C40.0841 2.18738 40.4617 1.82087 40.922 1.82087H40.9279C44.1793 1.85633 47.3953 1.30656 50.4579 0.201102C50.7765 0.082871 51.1365 0.177456 51.3666 0.431652C51.5909 0.685849 51.644 1.05236 51.4906 1.35976C51.2958 1.74993 51.5378 2.30561 51.8623 2.63075C52.3226 3.09185 53.0189 3.36378 53.6975 3.6298C54.0457 3.76576 54.264 4.12046 54.2227 4.4988C54.1814 4.87122 53.8981 5.17862 53.5264 5.23774C53.0012 5.32641 52.4819 5.52149 52.0334 5.81116C51.8918 5.89983 51.7384 5.94121 51.585 5.94121V5.9353Z" fill="#408F95"/>
<path d="M36.1378 95.2942C35.943 95.2942 35.7424 95.2647 35.5477 95.2056C35.1051 95.0696 34.8573 94.6026 34.9871 94.1592C35.1228 93.7158 35.589 93.4676 36.0315 93.5976C36.2558 93.6626 36.5862 93.4794 36.6984 93.2252C36.84 92.9178 36.7633 92.4685 36.5213 92.1375C36.2676 91.7887 35.8309 91.5168 35.2939 91.3749C34.8455 91.2567 34.5799 90.7955 34.6979 90.3522C34.816 89.9029 35.2762 89.6369 35.7188 89.7551C36.6216 89.9916 37.3888 90.4881 37.8667 91.1384C38.4745 91.9601 38.6103 93.0478 38.2208 93.9109C37.8431 94.7504 36.9934 95.2824 36.1319 95.2824L36.1378 95.2942Z" fill="#408F95"/>
</g>
<defs>
<clipPath id="clip0_1_1553">
<rect width="71" height="162" fill="white"/>
</clipPath>
</defs>
</svg>
